<?xml version="1.0" standalone="no"?>
<!DOCTYPE svg PUBLIC "-//W3C//DTD SVG 20010904//EN"
 "http://www.w3.org/TR/2001/REC-SVG-20010904/DTD/svg10.dtd">
<svg version="1.0" xmlns="http://www.w3.org/2000/svg"
 width="1024.000000pt" height="1024.000000pt" viewBox="0 0 1024.000000 1024.000000"
 preserveAspectRatio="xMidYMid meet">
<metadata>
Created by potrace 1.16, written by Peter Selinger 2001-2019
</metadata>
<g transform="translate(0.000000,1024.000000) scale(0.100000,-0.100000)"
fill="#000000" stroke="none">
<path d="M0 5120 l0 -5120 5120 0 5120 0 0 5120 0 5120 -5120 0 -5120 0 0
-5120z m5214 4933 c-10 -126 -7 -123 -120 -123 -52 0 -172 -5 -267 -12 -95 -7
-196 -12 -225 -13 l-53 0 -24 59 c-13 32 -39 74 -56 92 -18 19 -30 37 -26 40
6 6 191 28 312 37 28 2 144 4 258 5 l208 2 -7 -87z m217 47 c11 -35 10 -42 -5
-53 -12 -9 -25 -52 -41 -137 -29 -147 -55 -230 -103 -325 -66 -132 -145 -235
-236 -308 -45 -35 -51 -37 -62 -22 -11 15 -15 12 -34 -27 -87 -172 -210 -321
-399 -485 -25 -21 -85 -73 -133 -116 -49 -42 -102 -87 -119 -99 -16 -12 -29
-28 -29 -35 0 -7 -4 -13 -8 -13 -27 0 -139 -113 -163 -166 -21 -47 -43 -69
-59 -59 -5 3 -10 2 -10 -4 0 -6 -13 -17 -30 -26 -27 -14 -30 -14 -30 0 0 51
197 295 321 396 217 179 409 371 511 513 41 56 112 235 123 308 12 82 52 103
76 41 11 -28 7 -116 -7 -163 -10 -36 110 96 164 179 72 112 134 298 167 501
24 148 21 140 60 140 31 0 35 -3 46 -40z m369 -1 c110 -14 559 -106 630 -129
30 -10 96 -30 145 -44 219 -62 544 -194 791 -321 348 -179 592 -337 884 -574
237 -192 504 -453 640 -628 14 -17 71 -89 126 -160 397 -502 745 -1203 885
-1783 149 -614 200 -1090 170 -1585 -13 -206 -40 -451 -65 -578 -8 -40 -22
-112 -31 -162 -34 -186 -125 -524 -170 -631 -23 -55 -36 -55 -15 0 9 26 9 26
-14 11 -12 -8 -26 -12 -30 -8 -4 4 -4 -1 0 -12 7 -17 6 -18 -8 -7 -11 9 -18
10 -23 2 -3 -6 -11 -8 -16 -5 -5 3 -6 -1 -3 -9 5 -13 1 -14 -35 -7 -2 1 4 12
13 25 9 14 12 27 7 31 -5 3 -1 30 10 61 11 31 18 61 16 67 -4 13 -21 -32 -63
-167 -15 -49 -38 -111 -51 -138 -13 -26 -23 -52 -23 -57 0 -8 -75 -186 -122
-291 -52 -115 -165 -333 -225 -434 -88 -150 -270 -417 -333 -491 -28 -33 -88
-107 -133 -165 -146 -189 -541 -572 -727 -705 -15 -11 -97 -70 -182 -131 -386
-280 -861 -514 -1218 -599 -58 -14 -116 -25 -130 -25 -29 1 18 21 310 135 198
78 510 223 623 291 91 55 360 232 448 295 183 133 339 268 544 473 229 230
417 457 600 726 248 364 513 926 626 1328 77 272 149 623 183 889 56 432 42
931 -40 1362 -73 390 -166 711 -303 1053 -67 168 -277 565 -393 744 -25 38
-50 79 -56 90 -15 28 -212 290 -316 419 -100 125 -335 374 -442 469 -424 376
-868 652 -1379 858 -261 105 -632 217 -839 254 -122 21 -332 52 -413 60 l-73
7 0 86 c0 47 -3 96 -6 109 -7 23 -6 23 67 17 41 -3 112 -11 159 -16z m-1595
-73 c-39 -51 -58 -105 -51 -147 l6 -36 -128 -27 c-139 -30 -280 -69 -412 -114
-253 -87 -335 -119 -439 -168 l-114 -55 -56 54 c-31 30 -69 61 -85 69 l-29 15
64 34 c36 19 101 50 144 68 44 19 114 49 155 66 41 18 107 42 145 55 39 12 75
26 80 30 6 5 75 27 155 50 80 22 152 45 162 50 9 5 92 25 185 44 92 20 182 40
198 44 43 13 48 5 20 -32z m1232 -53 c-3 -10 -5 -4 -5 12 0 17 2 24 5 18 2 -7
2 -21 0 -30z m-1064 -14 c25 -35 31 -95 21 -216 l-8 -98 -8 90 c-5 50 -7 107
-4 128 3 26 1 37 -7 34 -7 -2 -13 -31 -14 -73 -12 -336 -62 -558 -148 -659
-27 -31 -26 -28 13 56 16 33 26 86 37 195 8 82 19 196 26 254 6 58 8 143 5
190 -5 69 -3 89 10 108 20 29 51 26 77 -9z m777 -223 c0 -34 -46 -126 -63
-126 -7 0 -33 20 -57 45 -65 66 -78 62 -150 -52 -22 -35 -43 -63 -48 -63 -5 0
-16 15 -24 34 -9 18 -30 49 -47 68 l-31 35 -67 -64 c-38 -36 -78 -74 -91 -86
l-23 -21 3 109 c3 107 4 110 28 117 33 10 229 22 418 27 l152 3 0 -26z m640
-31 c446 -75 487 -85 501 -123 15 -37 5 -192 -12 -203 -8 -5 -48 -16 -89 -24
-41 -9 -90 -23 -108 -31 -18 -7 -54 -14 -80 -14 -59 0 -121 -17 -128 -35 -10
-25 -71 -65 -154 -100 -44 -19 -80 -30 -80 -24 0 6 42 52 93 102 50 51 100
103 110 116 18 22 22 23 100 16 45 -3 105 -11 132 -16 45 -9 52 -8 68 12 15
19 16 25 4 43 -18 29 -86 61 -187 88 -72 19 -107 23 -231 21 -81 -1 -164 -6
-185 -12 -21 -6 -40 -9 -42 -7 -3 4 47 195 55 209 6 10 119 1 233 -18z m-403
-47 c-3 -7 -5 -2 -5 12 0 14 2 19 5 13 2 -7 2 -19 0 -25z m-1229 -70 l-3 -82
-100 -17 c-150 -27 -146 -27 -140 24 16 120 11 114 135 141 117 25 111 29 108
-66z m-267 -67 l3 -65 -70 -22 c-38 -12 -103 -32 -144 -43 -141 -41 -345 -114
-413 -148 -38 -19 -73 -33 -79 -31 -10 4 -61 118 -55 124 13 14 225 93 462
174 202 69 277 90 287 81 4 -3 8 -35 9 -70z m2553 39 l51 -17 3 -83 3 -83 -38
7 c-21 3 -59 6 -84 6 l-46 0 -6 92 c-3 50 -3 96 -1 100 7 10 45 3 118 -22z
m-3636 -134 c23 -25 42 -51 42 -59 0 -7 -30 -28 -67 -46 -563 -277 -1148 -802
-1585 -1421 -205 -291 -446 -753 -570 -1095 -220 -605 -322 -1255 -297 -1893
25 -640 170 -1243 454 -1881 67 -150 214 -426 260 -486 12 -17 53 -80 91 -140
89 -141 290 -403 492 -640 46 -54 81 -100 78 -102 -19 -19 -200 160 -299 295
-26 35 -74 97 -108 137 -81 96 -250 339 -338 485 -131 220 -293 568 -366 790
-21 63 -41 120 -45 125 -5 6 -13 26 -19 45 l-11 35 6 -40 c3 -22 7 -45 8 -52
1 -7 5 -16 9 -19 9 -10 9 -41 0 -47 -5 -2 -2 -2 5 -1 15 4 16 -12 2 -21 -8 -5
-7 -11 1 -21 7 -9 8 -14 1 -14 -12 0 -10 -26 3 -37 4 -4 5 -3 1 4 -3 6 -2 14
4 18 6 4 10 -5 10 -20 0 -14 4 -24 8 -21 5 3 9 -1 9 -9 0 -8 -3 -12 -7 -10 -9
5 -6 -33 3 -41 4 -4 7 -2 7 4 0 7 5 12 11 12 6 0 8 -9 4 -22 -6 -17 -4 -20 9
-15 9 4 16 2 16 -3 0 -12 -51 -10 -68 3 -7 6 -16 7 -20 3 -4 -4 1 -13 10 -20
10 -7 15 -16 12 -19 -3 -3 3 -3 15 0 13 3 21 1 21 -6 0 -7 4 -10 9 -6 5 3 13
0 17 -6 4 -8 3 -9 -4 -5 -7 4 -12 2 -12 -5 0 -9 -3 -9 -14 0 -12 10 -17 9 -24
-6 -11 -20 1 -63 17 -63 16 0 22 18 10 26 -8 4 -9 3 -5 -4 4 -7 3 -12 -3 -12
-5 0 -9 14 -9 30 l1 30 20 -32 c11 -18 25 -37 31 -41 7 -6 4 -7 -7 -3 -13 4
-16 2 -10 -7 4 -6 8 -27 8 -45 1 -19 7 -37 13 -41 9 -5 9 -12 -1 -25 -12 -16
-17 -10 -47 56 -18 40 -34 80 -36 88 -2 8 -8 16 -14 18 -5 2 -8 7 -6 11 2 3
-6 28 -18 53 -13 26 -19 45 -15 42 4 -2 -2 15 -14 39 -12 23 -23 49 -25 57 -2
8 -7 17 -11 20 -3 3 -6 15 -5 28 1 12 -6 27 -15 32 -13 8 -14 9 -1 10 10 0 11
3 4 8 -9 6 -23 32 -29 55 -2 4 -4 9 -5 12 -1 3 -4 10 -5 15 -1 6 -3 11 -4 13
-2 1 -4 13 -7 26 -2 14 -9 30 -14 36 -5 7 -7 15 -3 18 3 4 0 7 -7 7 -7 0 -10
3 -7 7 4 3 1 13 -6 21 -10 13 -9 14 2 7 11 -6 12 -5 5 6 -5 8 -9 17 -10 22 -1
4 -3 9 -4 12 -1 3 -4 10 -5 15 -1 6 -3 11 -5 13 -1 1 -3 9 -5 17 -10 39 -15
57 -24 88 -5 17 -8 32 -6 32 2 0 -3 16 -11 35 -8 20 -12 40 -9 45 3 5 0 12 -6
15 -5 4 -8 13 -5 21 3 8 2 14 -3 14 -5 0 -7 10 -7 22 1 13 -2 28 -6 34 -5 7
-8 16 -7 20 1 5 0 11 -1 14 -3 8 -9 42 -14 75 -3 17 -10 55 -16 85 -6 30 -13
73 -15 95 -3 22 -8 51 -11 65 -9 39 -15 91 -18 140 -1 25 -5 50 -9 57 -4 7 -8
27 -8 45 -13 619 -7 994 16 1119 2 9 6 32 9 50 25 157 70 406 82 459 20 82 20
82 27 100 4 8 18 62 32 120 32 126 126 403 190 555 161 387 378 773 604 1074
31 41 71 95 90 120 19 25 37 48 40 51 4 3 26 30 51 60 172 211 489 530 644
648 19 15 93 72 163 128 70 55 155 118 188 140 33 22 74 49 90 61 64 44 153
100 264 164 l116 67 6 -39 c3 -26 18 -52 47 -83z m3908 43 c313 -116 773 -351
876 -446 24 -23 26 -30 21 -82 -3 -31 -7 -58 -9 -60 -1 -2 -39 22 -83 53 -120
85 -233 134 -367 161 -63 12 -116 24 -117 26 -1 2 -11 21 -22 42 -18 33 -36
45 -165 106 -88 41 -181 77 -235 90 -49 13 -90 23 -91 24 -1 1 -4 35 -6 75
l-5 74 36 -7 c19 -4 95 -29 167 -56z m-2124 21 c16 0 19 -5 14 -24 -13 -50
-127 -236 -146 -236 -4 0 13 61 38 136 34 104 48 134 59 130 8 -3 24 -6 35 -6z
m-1635 -52 c52 -55 71 -92 100 -203 42 -159 41 -334 -4 -509 -36 -144 -155
-310 -383 -536 -182 -180 -297 -332 -340 -449 -11 -31 -25 -65 -30 -76 -43
-88 -64 -316 -39 -424 10 -46 4 -105 -11 -96 -4 3 -16 37 -25 76 -26 105 -16
259 25 404 60 209 170 376 396 600 254 253 323 348 378 523 23 73 26 100 26
221 0 105 -5 156 -20 215 -20 80 -98 258 -119 270 -13 8 -15 26 -3 26 4 0 26
-19 49 -42z m1854 -58 c-10 -25 -10 -24 -10 6 -1 17 2 47 7 65 l7 34 3 -40 c2
-23 -1 -52 -7 -65z m-106 23 c-16 -91 -22 -105 -127 -304 -61 -115 -103 -165
-203 -239 l-20 -15 20 25 c11 13 38 42 60 64 62 62 125 137 125 147 0 10 -118
-80 -177 -135 -18 -16 -33 -25 -33 -19 0 32 28 72 117 167 95 100 172 213 208
304 21 52 38 55 30 5z m874 -17 c-18 -18 -235 -142 -237 -135 -4 9 42 85 71
117 18 19 30 22 95 22 42 0 73 -2 71 -4z m-1583 -38 c-3 -13 -9 -53 -12 -90
-4 -36 -10 -71 -13 -76 -4 -6 -81 -35 -171 -65 -200 -66 -405 -144 -519 -198
-46 -21 -86 -38 -87 -36 -2 2 -6 46 -10 98 l-7 96 109 46 c182 76 251 102 449
167 105 34 201 65 215 70 43 15 53 12 46 -12z m1648 -35 c-34 -45 -150 -161
-223 -222 -58 -49 -75 -77 -86 -139 -12 -72 -62 -220 -84 -248 -11 -14 -17
-33 -14 -42 4 -13 2 -14 -5 -4 -7 10 -12 8 -24 -10 -8 -13 -18 -34 -21 -48 -3
-14 -13 -34 -21 -45 -13 -17 -15 -18 -16 -3 0 9 5 20 10 23 6 4 8 11 5 16 -4
5 -2 9 4 9 5 0 12 14 16 30 4 17 11 30 16 30 6 0 7 5 4 10 -11 18 -21 11 -43
-28 -30 -54 -97 -128 -131 -145 l-28 -14 10 33 c13 42 4 53 -23 29 -19 -18
-20 -17 -20 5 0 16 -4 20 -15 16 -8 -3 -15 -3 -15 0 0 11 49 80 70 99 21 19
50 66 50 81 0 3 -16 -8 -35 -25 -43 -37 -53 -40 -28 -7 10 13 52 68 93 123
118 154 334 364 464 450 61 40 112 71 114 68 3 -2 -8 -21 -24 -42z m-1492 -40
l21 -47 -23 -70 c-50 -158 -82 -220 -183 -355 -90 -120 -132 -162 -197 -201
-119 -70 -123 -61 -18 46 116 119 197 219 237 295 41 75 91 228 91 276 0 52
18 103 37 103 8 0 23 -21 35 -47z m2374 -22 c69 -13 109 -30 98 -41 -5 -5 -43
-14 -84 -21 -109 -16 -231 -54 -340 -104 -52 -23 -116 -46 -141 -50 l-47 -7 5
69 c3 37 9 75 14 84 8 16 181 64 259 72 74 8 189 7 236 -2z m-3585 -76 c4 -17
7 -49 8 -72 1 -40 -1 -42 -56 -75 -138 -81 -169 -98 -178 -98 -5 0 -11 31 -13
68 -3 55 0 73 15 89 24 29 184 123 203 120 8 -1 18 -16 21 -32z m2965 -57 c-4
-24 -43 -128 -88 -233 -116 -271 -213 -443 -336 -596 -58 -72 -192 -208 -192
-195 0 4 29 40 64 80 35 40 72 86 82 102 10 16 38 53 61 82 41 50 73 103 73
118 0 5 -14 -10 -30 -33 -53 -72 -216 -199 -399 -310 -68 -42 -55 -24 68 95
101 97 93 109 -19 28 -56 -41 -162 -96 -183 -96 -7 1 4 15 24 33 20 18 69 69
108 115 40 45 105 110 144 143 40 34 137 123 217 199 146 138 155 149 326 409
27 41 53 80 59 87 19 26 28 14 21 -28z m-923 -23 c-10 -13 -22 -25 -27 -25 -5
0 1 11 14 25 30 32 36 32 13 0z m1857 15 c-30 -5 -116 -16 -190 -25 -74 -9
-145 -17 -157 -19 -13 -2 -23 0 -23 4 0 18 206 47 335 48 84 0 86 -1 35 -8z
m-1040 -19 c0 -13 -65 -60 -115 -82 -29 -13 -61 -19 -88 -17 l-42 3 56 22 c31
12 78 35 105 52 48 30 84 40 84 22z m-1860 -11 c0 -26 -43 -116 -86 -181 -26
-40 -105 -132 -174 -203 -69 -72 -151 -162 -183 -201 -31 -38 -79 -97 -107
-130 -27 -33 -66 -90 -86 -128 -37 -71 -71 -101 -129 -113 -53 -11 -145 -66
-185 -111 -21 -24 -50 -68 -64 -98 -22 -47 -26 -69 -26 -144 0 -94 11 -132 54
-190 14 -19 26 -36 26 -38 0 -2 -24 -19 -54 -38 -30 -19 -83 -59 -118 -88
l-63 -54 -50 18 c-29 10 -81 18 -122 18 -63 1 -79 -3 -139 -34 -52 -27 -70
-32 -76 -23 -19 27 -2 181 31 281 50 153 134 269 356 491 244 243 334 373 385
551 11 37 26 78 34 90 31 48 317 175 736 328 24 9 40 8 40 -3z m-1259 -82 c3
-30 9 -60 13 -66 6 -11 -62 -67 -137 -111 l-37 -23 -6 31 c-10 47 -24 48 -24
1 0 -57 -10 -71 -87 -128 -68 -49 -302 -280 -426 -420 -36 -41 -115 -145 -176
-232 -61 -88 -116 -162 -121 -165 -6 -4 -10 52 -10 153 l0 159 29 44 c66 98
455 475 576 556 120 81 213 145 255 175 86 63 125 88 135 85 6 -2 13 -28 16
-59z m4354 -13 c119 -19 225 -52 365 -114 114 -51 150 -74 137 -88 -4 -3 -65
2 -135 12 -70 10 -197 20 -282 22 -141 3 -162 6 -230 32 -117 45 -240 80 -320
91 -82 12 -93 16 -59 25 128 32 390 42 524 20z m699 -46 c85 -52 96 -66 96
-123 1 -28 5 -70 9 -93 5 -24 6 -43 4 -43 -16 0 -57 31 -110 83 l-63 61 0 73
c0 40 3 73 6 73 4 0 30 -14 58 -31z m-4764 -8 c0 -26 -30 -163 -43 -193 -16
-39 -50 -69 -225 -199 -135 -101 -413 -369 -529 -509 -74 -90 -196 -265 -255
-365 -227 -386 -387 -866 -438 -1315 -17 -148 -9 -570 14 -720 17 -109 76
-355 116 -485 52 -171 151 -407 218 -521 22 -38 60 -105 84 -149 24 -44 52
-93 62 -110 l18 -30 -21 25 c-12 14 -36 46 -53 73 -35 52 -51 60 -44 22 3 -13
1 -27 -4 -30 -5 -3 -8 -11 -6 -18 1 -7 1 -9 -1 -4 -3 4 -10 4 -16 0 -7 -4 -5
1 3 11 19 24 23 51 6 37 -7 -6 -16 -8 -19 -4 -4 3 -8 2 -8 -3 -3 -22 -9 -51
-15 -78 -5 -22 -4 -27 6 -21 9 6 11 4 5 -4 -9 -16 -10 -14 -73 80 -109 163
-223 419 -292 649 -28 96 -55 186 -60 200 -21 57 -60 234 -82 370 -20 127 -23
180 -23 425 1 383 29 581 131 917 71 235 65 215 117 343 92 226 221 468 338
629 218 302 589 670 844 836 28 18 90 59 138 91 87 58 107 68 107 50z m1810
-16 c-7 -8 -17 -15 -23 -15 -5 0 -2 9 8 20 21 23 35 19 15 -5z m1303 -6 l67
-13 0 -35 c0 -20 -6 -43 -13 -51 -18 -22 -62 -57 -54 -43 5 7 -10 20 -38 34
-25 12 -53 31 -61 41 -16 17 -18 16 -36 -20 -11 -20 -27 -44 -35 -52 -12 -12
-11 -7 2 25 10 22 24 58 32 79 20 55 22 58 47 53 11 -3 51 -11 89 -18z m323 1
c131 -19 364 -89 448 -132 l41 -22 -75 -13 c-108 -18 -187 -8 -231 28 -19 16
-39 33 -45 38 -7 5 -51 31 -98 57 -77 41 -92 46 -129 40 -22 -4 -46 -11 -53
-17 -8 -7 -14 -6 -19 1 -3 6 -11 8 -16 5 -5 -4 -9 2 -10 12 0 11 -3 13 -6 5
-2 -6 -9 -10 -14 -6 -18 11 3 24 40 24 21 0 97 -9 167 -20z m-1616 -23 c0 -2
-16 -18 -35 -37 -19 -19 -35 -31 -35 -26 0 4 15 20 32 37 31 28 38 33 38 26z
m804 -8 c-19 -31 -171 -66 -162 -38 4 13 31 23 103 38 57 12 67 12 59 0z m842
-61 c66 -47 106 -138 61 -138 -16 0 -45 30 -61 63 -7 12 -33 38 -59 57 -41 30
-45 37 -31 47 19 14 36 9 90 -29z m-162 -30 c-12 -39 -41 -91 -73 -132 -17
-22 -52 -78 -77 -125 -104 -197 -383 -533 -536 -645 -45 -32 -51 -25 -9 10 16
13 69 70 117 127 48 56 95 109 104 117 9 8 30 33 45 55 16 22 -27 -17 -96 -86
-140 -142 -198 -181 -354 -239 -151 -57 -163 -53 -59 24 71 53 78 69 16 37
-47 -24 -122 -38 -122 -23 0 17 104 100 245 198 274 188 400 296 638 548 82
86 153 156 159 156 5 0 6 -10 2 -22z m1743 -65 l51 -48 5 -200 c2 -110 2 -203
-2 -207 -3 -4 -42 20 -86 52 -50 37 -101 66 -135 76 -58 17 -220 89 -220 98 0
3 6 3 13 1 6 -3 54 -9 105 -14 73 -7 98 -13 116 -30 30 -28 35 -27 52 14 19
46 18 130 -2 165 -14 22 -15 42 -9 104 l7 76 27 -19 c15 -11 50 -42 78 -68z
m-1607 18 c0 -5 -7 -11 -14 -14 -10 -4 -13 -1 -9 9 6 15 23 19 23 5z m1071
-60 c173 -20 231 -37 278 -82 31 -29 17 -35 -57 -20 -32 6 -95 15 -143 21
-142 17 -299 67 -284 90 8 13 12 13 206 -9z m-572 -5 c51 -27 91 -82 91 -127
0 -41 -14 -79 -29 -79 -4 0 -6 14 -3 31 4 24 -2 35 -28 59 -35 31 -89 47 -195
55 -99 8 -144 15 -151 26 -3 5 10 9 28 10 18 0 60 9 93 19 75 22 157 25 194 6z
m218 -27 c75 -32 228 -142 219 -158 -7 -11 -111 -32 -172 -35 -57 -3 -84 2
-84 16 0 6 7 8 15 5 13 -6 29 8 30 25 0 3 3 9 7 13 9 9 5 -16 -5 -32 -6 -9 -3
-11 7 -7 9 3 17 10 17 15 1 5 3 14 4 19 1 6 3 15 4 20 2 18 23 11 28 -9 6 -23
33 -37 33 -17 0 18 -29 42 -73 61 -49 20 -77 19 -78 -2 0 -16 -56 89 -58 110
-2 14 31 7 106 -24z m-1911 -71 c-20 -51 -117 -208 -128 -208 -5 0 3 17 16 38
13 21 45 80 71 131 47 94 72 118 41 39z m2982 -5 c24 -20 57 -54 73 -76 l29
-40 0 -174 c0 -102 -4 -173 -9 -173 -6 0 -39 25 -75 56 l-66 55 0 127 c0 70
-3 157 -7 195 -3 37 -2 67 2 67 4 0 28 -16 53 -37z m-1571 -19 c57 -39 74 -60
92 -116 10 -30 10 -42 -1 -60 l-13 -23 -3 22 c-5 31 -78 111 -124 134 -22 11
-53 21 -69 21 -16 1 -29 3 -29 5 0 2 10 17 22 34 28 37 50 34 125 -17z m-2517
21 c0 -3 -16 -23 -36 -45 -35 -39 -36 -39 -62 -23 l-27 17 24 -27 c30 -34 9
-37 -28 -5 -24 21 -24 21 2 -8 33 -36 34 -44 6 -44 -18 0 -19 -2 -9 -15 15
-18 7 -19 -23 -4 -21 12 -21 11 -4 -8 19 -22 24 -44 5 -25 -18 18 -27 14 -20
-10 4 -19 2 -20 -19 -14 -53 16 -69 18 -69 7 0 -6 7 -11 15 -11 12 0 13 -4 2
-27 -18 -42 -45 -59 -123 -82 -81 -23 -144 -57 -192 -101 -18 -16 -37 -30 -42
-30 -4 0 -11 -7 -14 -16 -5 -12 -2 -15 11 -9 39 16 57 16 29 1 -15 -9 -35 -16
-43 -16 -7 0 -33 -10 -56 -22 -23 -12 -48 -21 -56 -19 -7 1 -11 -2 -7 -7 3 -5
-15 -25 -39 -45 -28 -24 -45 -32 -48 -24 -2 6 -2 2 -1 -10 5 -26 -13 -40 -19
-16 -3 11 -5 5 -6 -12 -2 -29 -2 -29 -16 -11 -15 19 -15 19 -15 -2 0 -24 -15
-30 -23 -9 -3 6 -6 -4 -7 -23 -1 -19 -4 -27 -7 -17 -7 28 -20 20 -31 -20 -10
-37 -10 -37 -11 -8 -2 42 -21 12 -21 -33 0 -22 -4 -31 -11 -26 -6 3 -9 18 -6
33 3 15 2 33 -4 41 -6 11 -9 3 -9 -25 0 -30 -3 -36 -10 -25 -7 11 -9 2 -6 -30
2 -25 2 -35 -1 -22 -12 61 -38 -25 -27 -89 5 -32 5 -33 -10 -14 -45 54 -44
154 1 237 36 65 81 104 172 145 42 19 87 40 100 46 13 7 38 39 55 72 50 96 93
151 156 202 143 116 302 189 474 217 96 17 106 18 106 11z m1030 -53 c0 -5 -7
-17 -15 -28 -14 -18 -14 -17 -4 9 12 27 19 34 19 19z m-2367 -56 c-21 -24
-108 -109 -194 -189 -198 -185 -292 -309 -372 -492 -124 -285 -126 -610 -5
-801 28 -44 29 -52 19 -79 -22 -54 -26 -194 -7 -261 15 -53 26 -68 105 -144
77 -74 163 -137 211 -154 28 -10 43 11 48 68 2 31 8 59 13 61 4 3 23 -4 41
-15 42 -26 223 -82 251 -78 32 4 33 48 3 115 -15 31 -24 58 -22 60 2 3 21 -1
43 -7 21 -6 98 -14 171 -17 73 -3 135 -9 137 -13 3 -5 -20 -31 -51 -59 -49
-45 -61 -51 -98 -51 -27 0 -52 -7 -68 -19 -75 -59 -114 -232 -85 -374 22 -110
57 -181 99 -203 18 -9 58 -33 88 -54 88 -58 330 -170 370 -170 19 0 40 33 40
64 l0 33 143 0 c114 0 154 3 201 19 33 11 61 25 63 31 3 7 -13 21 -34 32 -21
11 -70 49 -110 84 l-71 64 86 7 c83 6 249 41 264 55 4 3 -42 57 -103 120 -60
63 -109 117 -109 120 0 4 42 22 93 40 88 33 227 97 227 105 0 3 -38 34 -85 71
-47 36 -85 70 -85 76 0 13 31 11 79 -6 102 -36 313 -65 355 -49 26 10 19 25
-49 104 -88 102 -88 109 4 55 73 -43 191 -91 262 -107 93 -20 301 -15 399 9
333 85 512 189 669 391 48 63 54 102 17 102 -14 0 -76 -19 -138 -41 -175 -64
-234 -78 -328 -78 l-85 0 40 15 c22 8 86 26 142 39 56 13 130 37 165 53 79 36
235 131 309 188 120 92 507 450 525 486 9 16 15 16 88 -7 107 -35 176 -71 285
-149 154 -112 221 -199 294 -385 49 -125 50 -127 54 -264 4 -92 2 -142 -6
-150 -14 -14 -147 -13 -192 2 -20 6 -47 23 -60 37 -21 22 -23 33 -22 112 1 48
8 125 17 171 29 151 15 213 -61 282 -63 57 -181 74 -332 48 -86 -15 -121 -33
-121 -63 0 -22 -3 -23 -49 -18 -95 9 -218 -73 -270 -181 -41 -83 -63 -171 -51
-202 14 -36 55 -43 91 -16 124 92 137 92 253 10 47 -34 86 -66 86 -71 0 -9
-38 -5 -124 14 -69 15 -146 15 -184 -1 -17 -7 -56 -42 -86 -77 -47 -55 -55
-71 -61 -119 -9 -65 9 -231 26 -252 7 -8 24 -13 38 -11 20 2 31 15 51 55 l25
53 58 0 c43 0 70 7 105 25 36 19 61 25 112 25 36 0 71 -4 79 -9 21 -14 8 -70
-39 -168 -37 -76 -41 -90 -35 -133 6 -43 4 -49 -14 -55 -56 -18 -109 -124 -96
-194 26 -137 152 -221 263 -175 67 28 105 80 110 153 6 77 -11 125 -64 181
l-44 47 61 44 c33 24 77 65 97 91 42 56 64 60 132 26 29 -15 57 -40 78 -72 50
-75 51 -90 7 -171 -107 -197 -132 -232 -257 -343 -67 -59 -133 -120 -147 -137
-86 -100 -175 -158 -310 -204 -114 -39 -128 -58 -66 -88 19 -9 35 -19 35 -22
-1 -3 -26 -18 -58 -33 -31 -15 -73 -37 -92 -48 -30 -17 -52 -20 -190 -20 -203
0 -332 -19 -428 -65 -40 -19 -75 -42 -79 -51 -10 -27 57 -78 155 -117 88 -35
106 -50 77 -61 -20 -7 -228 -34 -300 -38 l-50 -3 -3 457 c-3 506 -3 503 60
552 19 14 59 34 89 45 156 53 199 101 199 220 0 80 -12 93 -96 102 -38 5 -329
8 -647 8 l-578 1 -24 -24 c-30 -30 -40 -84 -25 -130 19 -58 95 -128 196 -180
51 -26 100 -56 110 -67 17 -19 19 -44 22 -293 1 -149 -1 -365 -5 -479 l-8
-208 -139 -5 c-76 -2 -143 -7 -148 -10 -4 -3 -97 -9 -206 -14 -113 -6 -225
-16 -262 -25 -36 -9 -117 -25 -180 -36 -145 -25 -192 -39 -362 -105 -130 -51
-351 -122 -410 -132 -16 -2 -28 -9 -28 -14 0 -6 -7 -7 -16 -4 -8 3 -13 2 -10
-3 7 -10 -72 -47 -81 -38 -3 4 -12 -1 -19 -11 -21 -28 -12 9 10 44 10 16 13
23 5 16 -19 -17 -30 -15 -27 5 2 11 -2 17 -11 15 -7 -1 -19 2 -26 8 -10 8 -16
7 -25 -7 -10 -16 -11 -16 -7 5 6 28 -1 28 -13 0 -7 -19 -9 -19 -9 -5 -1 10 -5
16 -10 12 -6 -3 -8 3 -6 15 4 23 -10 36 -21 19 -5 -8 -3 -9 6 -4 9 5 11 4 6
-3 -5 -9 -12 -8 -26 1 -11 6 -20 15 -20 19 0 5 -5 8 -10 8 -7 0 -7 -6 0 -19 7
-13 7 -22 0 -26 -5 -3 -10 3 -10 14 0 11 -8 25 -17 31 -17 10 -17 10 1 8 11
-2 20 4 21 13 2 9 -3 16 -11 16 -7 0 -11 -3 -9 -7 2 -4 -8 -13 -23 -21 -15 -8
-29 -17 -32 -21 -3 -4 -12 -3 -20 2 -13 9 -13 10 0 10 8 0 21 10 29 22 13 21
13 22 -3 8 -16 -12 -19 -12 -27 2 -5 9 -17 15 -27 13 -9 -2 -20 -4 -24 -4 -4
-1 -5 -8 -2 -16 4 -8 1 -15 -6 -15 -6 0 -8 5 -5 10 3 6 -1 10 -9 10 -8 0 -18
6 -22 13 -4 6 -4 9 1 5 4 -4 15 -2 23 5 13 10 14 9 7 -2 -5 -9 -4 -12 3 -7 6
4 9 13 6 21 -4 10 -12 12 -30 4 -14 -5 -23 -5 -20 0 3 4 -1 17 -9 27 -14 18
-15 17 -9 -10 5 -21 4 -27 -5 -22 -6 4 -9 11 -6 15 2 5 -3 17 -11 27 -9 10
-13 13 -9 7 3 -7 2 -13 -3 -13 -17 0 -22 13 -9 29 10 14 10 14 -5 3 -9 -8 -21
-11 -26 -8 -5 3 -9 -1 -9 -8 0 -8 6 -12 14 -9 7 3 13 1 13 -5 0 -11 -18 -11
-35 -1 -5 4 -17 5 -26 4 -12 -2 -15 3 -11 22 3 17 7 21 13 12 4 -7 5 -17 2
-23 -3 -5 -1 -6 6 -2 11 7 8 18 -11 43 -11 13 -64 1 -61 -14 1 -6 -7 -19 -19
-29 -12 -11 -18 -13 -13 -5 5 9 3 12 -6 9 -8 -3 -13 -12 -11 -19 2 -8 0 -10
-5 -6 -4 5 -8 21 -9 35 -2 56 -36 86 -47 41 -7 -26 12 -71 26 -62 6 3 7 1 4
-5 -4 -5 -4 -17 -1 -26 5 -14 9 -14 23 -4 14 11 14 11 3 -4 -11 -14 -10 -24 9
-65 12 -26 29 -59 39 -73 9 -14 27 -43 39 -65 l23 -40 -26 30 c-35 41 -166
300 -238 470 -73 171 -148 434 -189 654 -25 135 -32 203 -36 363 -12 436 57
801 238 1256 83 207 157 344 311 574 137 205 297 377 553 594 144 122 185 147
118 70z m4307 13 c0 -6 -4 -7 -10 -4 -5 3 -10 11 -10 16 0 6 5 7 10 4 6 -3 10
-11 10 -16z m307 -86 c61 -59 74 -79 84 -122 11 -49 0 -82 -36 -105 -15 -10
-28 -16 -30 -14 -2 2 6 22 17 46 18 37 19 46 8 68 -7 13 -18 24 -23 24 -5 0
-21 12 -35 28 -14 15 -27 26 -29 24 -2 -1 -20 5 -41 14 -20 9 -61 17 -90 18
-33 2 -59 9 -70 19 -15 16 -13 17 28 18 25 0 65 4 90 8 77 14 86 12 127 -26z
m-295 -10 c29 -28 58 -106 58 -152 -1 -14 -7 -37 -14 -50 -13 -24 -14 -23 -25
27 -14 65 -53 126 -93 145 -27 13 -37 13 -72 1 -40 -13 -40 -13 -16 4 13 9 36
27 50 40 32 28 73 23 112 -15z m1401 -123 c15 -24 17 -49 15 -199 l-3 -172
-70 88 -70 88 3 135 c2 74 5 147 8 163 l6 27 46 -51 c26 -29 55 -64 65 -79z
m-922 63 c13 -16 12 -17 -3 -4 -10 7 -18 15 -18 17 0 8 8 3 21 -13z m-2851
-105 c-26 -135 -65 -229 -137 -332 -32 -45 -71 -101 -88 -125 -16 -25 -53 -63
-82 -85 -29 -22 -51 -41 -50 -43 3 -3 461 153 562 191 37 14 -26 -34 -80 -61
-57 -29 -275 -170 -275 -177 0 -7 49 14 80 35 33 22 70 41 70 36 0 -2 -57 -42
-127 -87 -152 -100 -137 -89 -132 -95 3 -2 34 9 70 25 62 29 63 29 34 5 -69
-58 -194 -121 -196 -99 0 5 -2 17 -4 27 -2 9 2 17 8 17 7 0 4 7 -7 15 -13 10
-17 21 -12 39 4 16 1 28 -7 33 -7 4 -28 27 -46 50 -30 38 -35 40 -64 32 -17
-5 -33 -7 -35 -4 -5 5 60 63 107 94 53 35 107 88 159 156 25 33 80 96 122 140
74 77 78 83 94 155 19 85 46 173 52 167 2 -2 -5 -51 -16 -109z m3197 -2 c162
-98 194 -120 293 -202 186 -154 251 -232 368 -440 45 -79 89 -200 78 -211 -2
-3 -24 24 -49 59 -91 127 -286 298 -424 373 -49 26 -67 45 -43 45 13 0 -42 76
-74 101 -13 11 -55 59 -92 107 -37 48 -102 127 -143 177 -58 69 -68 85 -43 70
17 -11 75 -47 129 -79z m-310 78 c-3 -3 -12 -4 -19 -1 -8 3 -5 6 6 6 11 1 17
-2 13 -5z m-70 -46 c-3 -7 -5 -2 -5 12 0 14 2 19 5 13 2 -7 2 -19 0 -25z
m-733 -66 c9 -25 16 -55 16 -66 -1 -19 -2 -19 -15 4 -8 14 -14 33 -15 43 0 9
-4 17 -9 17 -14 0 -52 70 -45 82 10 17 52 -32 68 -80z m803 51 c-1 -10 -6 -23
-9 -29 -4 -6 -1 -11 7 -11 8 0 13 3 10 5 -3 3 3 14 12 25 10 11 12 17 6 13 -7
-4 -13 -2 -13 3 0 6 9 11 20 11 25 0 25 -7 3 -34 -17 -20 -17 -20 0 -7 14 11
17 11 18 0 0 -11 2 -11 6 -1 4 10 9 10 24 -4 14 -13 16 -21 8 -36 -8 -15 -8
-19 0 -14 6 4 19 2 28 -4 16 -10 16 -11 1 -6 -9 3 -18 0 -21 -7 -2 -8 -11 -8
-33 0 -16 6 -55 16 -86 23 -50 10 -58 14 -57 33 1 17 2 18 6 4 4 -16 6 -15 24
5 l20 23 -12 -25 c-9 -20 -9 -23 1 -13 7 7 14 23 16 35 3 29 2 28 14 28 5 0 9
-8 7 -17z m-3538 -62 c-17 -42 -33 -58 -83 -91 -33 -22 -54 -40 -46 -40 11 -1
9 -4 -5 -13 -39 -23 -63 -50 -58 -63 3 -8 9 -11 14 -8 5 3 9 3 9 -1 0 -14
-121 -47 -219 -59 -46 -6 -124 -36 -205 -78 -13 -7 -16 -7 -12 1 9 14 0 14
-25 1 -14 -8 -19 -7 -19 2 0 10 -2 10 -9 -1 -5 -8 -22 -14 -39 -15 -17 0 -30
-5 -29 -11 1 -5 -4 -9 -12 -10 -8 0 -29 -27 -48 -60 -30 -53 -33 -66 -29 -113
2 -29 1 -50 -4 -47 -14 9 -30 102 -24 137 19 99 128 230 240 286 77 39 110 47
279 72 162 23 219 47 292 121 26 27 49 47 51 45 2 -2 -6 -27 -19 -55z m2356
-8 c-137 -71 -142 -76 -530 -443 -96 -92 -216 -190 -231 -190 -3 0 6 10 22 23
16 12 36 29 44 38 8 9 44 47 80 84 72 75 71 74 -110 -58 -74 -53 -112 -73
-187 -97 -99 -32 -174 -38 -220 -18 l-28 12 43 4 c23 2 40 7 37 13 -4 5 4 9
17 9 13 0 30 5 38 11 18 13 -66 2 -92 -12 -9 -5 -25 -9 -35 -9 -15 0 -14 3 7
24 22 22 228 130 324 170 68 28 243 138 375 236 74 53 169 117 213 140 91 48
229 99 273 99 26 1 20 -4 -40 -36z m2291 -180 l26 -53 -7 -197 -8 -198 -25 55
c-15 30 -49 102 -77 160 l-50 105 3 150 4 150 54 -60 c30 -33 66 -84 80 -112z
m-7103 -158 c2 -57 -2 -69 -72 -208 -41 -81 -77 -147 -80 -147 -4 0 -6 109 -6
243 0 273 -7 245 89 367 l51 64 8 -129 c4 -72 9 -157 10 -190z m2887 238 c-18
-32 -44 -78 -57 -103 -14 -25 -41 -67 -61 -95 -58 -81 -162 -172 -183 -159 -9
5 -7 11 6 21 11 7 14 13 8 13 -7 0 -15 -5 -18 -11 -4 -6 -13 -8 -21 -5 -7 3
-18 -3 -23 -12 -6 -9 -11 -13 -11 -8 0 5 7 17 15 26 14 16 14 17 -9 15 -14 -2
-39 -13 -55 -24 -16 -12 -44 -24 -62 -28 -27 -5 -30 -4 -23 10 30 54 126 142
272 251 245 183 247 184 250 175 2 -5 -11 -35 -28 -66z m2997 -9 c28 -62 26
-125 -5 -164 -17 -21 -17 -21 -18 12 -2 87 -53 167 -107 168 -15 1 -10 5 16
15 21 7 41 16 44 19 4 3 15 6 25 6 13 0 27 -17 45 -56z m142 32 c46 -14 96
-33 110 -44 36 -26 69 -78 77 -118 9 -46 -22 -109 -55 -110 l-24 -1 24 18 c24
18 24 18 2 14 -13 -2 -26 1 -29 7 -4 7 -2 8 4 4 7 -4 12 -2 12 3 0 6 -5 11
-11 11 -5 0 -8 4 -4 9 3 5 -2 16 -10 24 -21 22 -19 30 6 17 11 -7 22 -10 25
-8 17 18 -119 121 -176 133 -40 9 -81 65 -47 65 6 0 50 -11 96 -24z m-489 -58
c12 -20 20 -50 20 -78 -1 -36 -3 -42 -11 -27 -6 10 -8 25 -5 32 3 8 -11 30
-31 51 -27 28 -32 38 -22 45 22 14 28 11 49 -23z m434 -80 c1 -82 1 -81 111
-119 48 -17 49 -18 16 -18 -37 -1 -109 17 -128 32 -9 6 -13 39 -13 100 0 50 3
87 6 84 4 -3 7 -39 8 -79z m-6189 -290 c3 -112 6 -230 7 -263 1 -47 -13 -108
-61 -275 -34 -118 -67 -219 -72 -225 -5 -5 -9 14 -10 50 0 33 -4 206 -8 385
l-9 325 31 55 c38 69 96 150 107 150 5 0 11 -91 15 -202z m4117 169 c-17 -18
-46 -40 -64 -50 -32 -17 -32 -17 -8 0 14 10 41 33 60 50 45 42 53 42 12 0z
m3384 -95 l36 -53 -2 -522 c-1 -287 -3 -1399 -4 -2472 -1 -1072 -6 -1958 -10
-1967 -10 -23 -26 -14 -21 11 2 13 -2 18 -13 16 -9 -1 -20 3 -24 9 -5 7 -8 6
-8 -4 0 -13 -1 -13 -10 0 -7 12 -10 8 -10 -15 0 -22 -3 -26 -9 -15 -5 8 -13
968 -18 2150 -10 2547 -10 2678 1 2845 l8 130 24 -30 c14 -17 41 -54 60 -83z
m-2426 53 c62 -14 114 -25 116 -25 1 0 5 8 7 18 4 13 5 12 6 -5 0 -12 -3 -24
-7 -27 -9 -5 -239 48 -249 58 -10 10 8 7 127 -19z m1551 -37 c8 -14 6 -18 -7
-18 -10 0 -14 3 -11 7 4 3 3 11 -2 17 -4 6 -11 20 -14 31 l-7 20 16 -20 c8
-11 20 -28 25 -37z m-559 -23 c2 -19 0 -35 -4 -35 -8 0 -12 24 -9 44 1 5 -4
13 -11 17 -10 7 -9 9 3 9 12 0 18 -11 21 -35z m346 3 c17 -14 15 -108 -3 -132
-13 -17 -14 -17 -20 10 -4 16 -8 34 -10 40 -2 7 -27 24 -55 40 -48 26 -63 53
-25 46 11 -2 14 1 10 9 -10 15 83 3 103 -13z m-1541 -4 c-3 -4 -34 -17 -69
-29 -35 -12 -109 -41 -166 -64 -57 -23 -108 -41 -113 -39 -6 2 29 34 78 70
l88 67 94 1 c52 0 92 -3 88 -6z m1783 -25 c0 -6 -4 -7 -10 -4 -5 3 -10 11 -10
16 0 6 5 7 10 4 6 -3 10 -11 10 -16z m-1301 -39 c5 0 12 8 14 18 4 13 5 12 6
-5 1 -27 21 -41 22 -16 1 10 5 5 9 -12 4 -16 8 -22 9 -12 2 27 15 20 28 -14 7
-17 16 -28 22 -25 5 4 12 2 16 -4 4 -6 -5 -10 -22 -10 -18 0 -58 21 -110 56
-84 57 -117 96 -43 49 22 -14 44 -25 49 -25z m-2991 -12 c24 -30 -34 -127
-106 -178 -28 -20 -46 -25 -96 -25 -57 0 -61 1 -59 23 7 60 85 135 179 172 59
23 68 24 82 8z m4213 -34 c60 -40 99 -79 99 -98 0 -14 -53 10 -135 59 -22 14
-48 25 -57 25 -15 0 -16 4 -6 25 15 34 36 32 99 -11z m-1836 -39 c-153 -123
-355 -281 -391 -305 -55 -39 -228 -137 -273 -156 -43 -18 -51 -11 -14 12 15
10 30 21 33 25 5 7 118 76 187 116 92 53 48 40 -69 -19 -67 -35 -157 -72 -198
-83 -115 -29 -284 -25 -252 7 6 6 8 16 6 23 -4 8 38 20 138 39 169 33 282 74
438 160 63 35 138 76 166 91 50 26 244 113 254 114 3 0 -8 -11 -25 -24z m2198
-12 c37 -29 130 -128 205 -219 23 -28 73 -102 112 -164 l70 -113 0 -156 0
-156 -49 121 c-61 154 -147 314 -227 426 -53 74 -164 265 -164 282 0 12 18 5
53 -21z m-694 -48 c64 -38 73 -55 46 -91 -16 -22 -20 -12 -5 16 8 15 4 22 -23
39 -41 27 -94 71 -85 71 4 0 34 -16 67 -35z m-6454 -360 c11 -503 9 -555 -20
-757 -33 -230 -35 -512 -6 -688 40 -240 45 -305 33 -465 -11 -137 -21 -1078
-23 -2070 0 -220 -4 -409 -8 -420 -7 -17 -14 -8 -44 53 -20 40 -31 72 -24 72
8 0 8 3 0 11 -6 6 -8 23 -3 45 5 19 4 32 -1 28 -5 -3 -9 4 -9 16 0 12 -4 19
-9 16 -5 -3 -11 9 -14 27 -3 17 -6 914 -7 1992 -1 1078 -5 2028 -9 2110 -5
102 -4 160 3 181 19 55 120 234 127 226 4 -4 10 -173 14 -377z m7884 297 c90
-161 83 -106 77 -647 -4 -264 -9 -1249 -12 -2189 l-5 -1710 -21 -38 c-22 -38
-48 -56 -28 -19 7 15 6 23 -5 35 -8 8 -15 20 -15 27 0 7 -3 10 -6 6 -3 -3 -8
-34 -11 -69 -5 -59 -4 -62 11 -43 21 28 20 12 -6 -59 l-23 -61 -5 520 c-5 456
-9 1528 -15 3650 -1 549 1 685 11 685 1 0 25 -40 53 -88z m-3419 63 c0 -2 -10
-9 -22 -15 -22 -11 -22 -10 -4 4 21 17 26 19 26 11z m-342 -40 c-2 -3 -26 -9
-52 -14 -26 -5 -44 -5 -39 -1 12 12 103 27 91 15z m1686 -20 c18 -14 37 -25
42 -25 5 0 20 -7 33 -17 23 -15 23 -17 6 -30 -25 -18 -29 -17 -65 13 -29 25
-68 84 -55 84 4 0 21 -11 39 -25z m-3793 -5 l24 -20 -30 5 c-16 3 -24 2 -17
-1 19 -9 14 -24 -5 -17 -12 3 -10 0 5 -11 21 -16 22 -43 1 -31 -5 4 -9 2 -9
-4 0 -5 6 -12 13 -14 6 -2 -1 -3 -18 -1 -28 3 -29 3 -11 -11 19 -14 18 -16
-14 -43 -19 -17 -30 -34 -26 -41 5 -7 -1 -11 -16 -11 l-23 -1 24 -19 c13 -11
18 -20 13 -20 -6 0 -14 5 -17 10 -9 14 -53 12 -104 -6 -24 -8 -51 -12 -60 -8
-22 10 -28 11 -51 13 -11 0 -20 6 -20 13 0 7 -12 24 -26 39 l-26 27 28 18 c16
10 59 40 95 66 37 26 86 57 110 68 59 26 130 26 160 0z m949 2 c0 -15 -76 -81
-155 -134 -44 -29 -87 -59 -95 -66 -15 -14 -92 -61 -210 -128 -36 -21 -99 -61
-140 -90 -143 -99 -328 -197 -400 -213 -25 -5 -82 -12 -127 -16 -49 -4 -87
-12 -93 -20 -11 -14 -34 -13 -122 1 -21 3 -38 10 -38 14 0 5 -9 7 -20 5 -11
-2 -18 0 -15 5 3 5 1 11 -5 15 -5 3 -11 1 -11 -4 -3 -26 -4 -30 -11 -36 -7 -8
-5 10 5 41 4 11 13 21 20 22 6 1 32 6 57 12 25 6 77 15 115 20 217 26 361 81
617 233 79 47 206 121 283 165 77 43 176 102 220 131 72 46 125 64 125 43z
m612 -26 c-79 -32 -98 -43 -204 -120 -41 -29 -62 -36 -88 -26 -3 1 -9 2 -13 1
-5 -1 -6 3 -3 8 4 5 -3 12 -14 16 -11 3 -20 10 -20 15 0 5 -9 12 -20 15 -11 3
-20 10 -20 15 0 16 154 67 250 84 206 35 235 33 132 -8z m2434 -24 c-19 -36
-86 -102 -104 -102 -8 0 11 25 42 56 31 31 56 60 56 65 0 5 5 9 10 9 6 0 4
-12 -4 -28z m606 -21 c30 -35 92 -136 73 -119 -4 4 -14 3 -22 -3 -10 -9 -13
-8 -13 1 0 8 -3 11 -6 7 -13 -12 -65 17 -84 48 -20 33 -25 61 -14 89 10 26 30
19 66 -23z m-4231 -42 c-32 -6 -72 -6 -95 -1 -34 8 -25 9 54 9 89 0 92 0 41
-8z m3107 -74 c43 -17 71 -51 55 -65 -4 -4 -33 -12 -63 -18 l-55 -11 -73 50
c-41 27 -80 49 -88 49 -8 0 -14 5 -14 11 0 18 186 5 238 -16z m469 19 c-3 -3
-12 -4 -19 -1 -8 3 -5 6 6 6 11 1 17 -2 13 -5z m-4450 -28 c38 -18 58 -35 77
-68 29 -50 47 -124 24 -98 -21 24 -102 85 -93 70 5 -8 -5 -4 -22 8 -17 12 -33
19 -36 16 -3 -3 -28 -6 -56 -6 -28 1 -64 -3 -81 -8 -21 -6 -30 -5 -30 3 0 7
-5 4 -11 -6 -6 -9 -14 -15 -19 -12 -12 7 -60 -53 -82 -103 -12 -27 -17 -54
-14 -70 6 -25 5 -26 -8 -9 -24 30 -28 84 -12 141 18 60 49 96 121 137 67 39
165 41 242 5z m4461 -19 c12 -11 22 -26 22 -33 0 -7 10 -29 21 -49 31 -52 32
-80 3 -93 -36 -17 -46 0 -100 190 -7 22 20 14 54 -15z m-711 -36 c63 -41 87
-78 81 -127 -5 -50 -30 -33 -100 69 -37 53 -61 97 -54 97 7 0 40 -17 73 -39z
m-3272 19 c-3 -5 -12 -10 -18 -10 -7 0 -6 4 3 10 19 12 23 12 15 0z m1295 6
c0 -2 -7 -7 -16 -10 -8 -3 -12 -2 -9 4 6 10 25 14 25 6z m1801 -58 c12 -23 54
-80 93 -126 103 -123 128 -156 117 -160 -25 -8 -122 52 -179 112 -34 35 -69
66 -78 70 -14 5 -13 9 7 26 13 11 19 19 13 20 -6 0 -19 -9 -29 -20 -10 -11
-44 -28 -74 -36 -31 -9 -68 -23 -83 -31 -41 -20 -37 7 8 57 33 36 159 129 176
130 4 0 17 -19 29 -42z m2176 -106 c155 -260 231 -535 221 -802 l-3 -85 -50
140 c-27 77 -68 167 -89 200 -46 71 -81 147 -90 195 -7 41 2 33 36 -30 79
-142 96 -138 22 6 -37 70 -47 101 -49 144 -1 30 0 49 2 43 3 -7 9 -13 13 -13
5 0 2 20 -7 45 -18 53 -25 58 -17 13 4 -23 2 -28 -4 -18 -5 8 -17 60 -26 115
-10 55 -20 108 -22 118 -12 40 14 11 63 -71z m-476 45 c-10 -9 -11 -8 -5 6 3
10 9 15 12 12 3 -3 0 -11 -7 -18z m-7005 -1956 c-4 -1298 -9 -1828 -17 -1835
-8 -8 -9 4 -7 41 3 29 0 58 -5 65 -6 9 -7 8 -3 -4 3 -10 1 -18 -4 -18 -6 0
-10 9 -10 20 0 11 7 20 15 20 8 0 15 4 15 10 0 5 -6 8 -12 6 -7 -1 -10 -1 -5
1 4 3 7 25 7 49 0 34 -3 43 -12 38 -10 -6 -10 -4 0 8 15 19 4 29 -26 23 -12
-2 -21 0 -19 5 1 4 -2 8 -8 9 -5 1 -10 -2 -11 -6 0 -5 -4 -15 -7 -23 -8 -19
-3 -169 7 -195 4 -11 0 -8 -8 7 -14 24 -16 204 -21 1645 -3 890 -9 1638 -13
1663 -4 25 -4 71 0 103 7 53 74 233 115 310 l17 32 9 -75 c5 -42 6 -890 3
-1899z m3253 1928 c-11 -6 -69 15 -69 25 0 2 18 -1 41 -6 26 -7 36 -14 28 -19z
m3141 20 c0 -6 -32 -44 -70 -84 -59 -60 -70 -77 -65 -97 6 -24 -11 -85 -21
-75 -9 8 -6 115 3 131 6 11 141 132 151 135 1 1 2 -4 2 -10z m1938 -117 c54
-130 77 -211 68 -245 -10 -42 -17 -686 -21 -2032 l-3 -1330 -55 -140 -55 -139
-4 79 c-7 169 -10 3794 -3 3862 4 40 11 70 15 68 5 -3 30 -58 58 -123z m-5018
98 c14 -10 22 -21 18 -25 -3 -3 -18 5 -33 19 -32 30 -22 34 15 6z m2417 -72
c-2 -13 -4 -3 -4 22 0 25 2 35 4 23 2 -13 2 -33 0 -45z m1195 10 c-7 -7 -12
-8 -12 -2 0 14 12 26 19 19 2 -3 -1 -11 -7 -17z m-4068 -30 c-16 -18 -65 -71
-110 -118 -131 -137 -195 -246 -244 -415 -37 -128 -64 -180 -121 -228 -52 -45
-104 -53 -234 -37 -89 12 -96 14 -93 34 3 20 10 21 140 26 118 4 140 8 165 26
49 36 82 95 104 184 36 148 117 285 238 408 105 105 229 201 155 120z m4048
-59 c15 -30 30 -67 33 -84 5 -29 5 -29 -6 -5 -38 81 -63 130 -67 130 -2 0 -13
-11 -24 -25 -11 -14 -24 -25 -30 -25 -5 0 3 15 19 34 15 19 32 33 38 32 5 -1
22 -27 37 -57z m-2717 -90 c84 -23 244 -31 300 -16 54 15 12 -13 -61 -40 -129
-49 -449 -41 -585 14 -22 8 -38 17 -36 19 2 2 86 -3 186 -12 100 -8 187 -14
193 -12 6 2 -36 15 -93 27 -57 13 -111 30 -119 38 -13 14 -7 15 60 10 41 -3
111 -16 155 -28z m-2822 -52 c-4 -41 0 -65 21 -116 35 -86 24 -91 -15 -7 -31
66 -42 146 -25 174 15 25 24 0 19 -51z m4932 -21 c20 -89 39 -111 90 -103 19
3 35 2 35 -2 0 -28 -109 -83 -169 -85 l-46 -1 1 70 c0 39 4 86 7 106 8 37 41
89 57 89 5 0 16 -33 25 -74z m652 -3 c-3 -10 -5 -2 -5 17 0 19 2 27 5 18 2
-10 2 -26 0 -35z m-5166 18 c5 8 9 9 9 3 0 -6 -6 -16 -13 -22 -10 -8 -13 -6
-14 11 0 12 1 16 4 8 5 -11 7 -11 14 0z m1944 -32 c55 -17 157 -46 228 -64 71
-19 131 -36 134 -39 13 -13 -127 -31 -242 -31 -97 0 -145 5 -189 18 -71 22
-67 33 6 17 63 -14 278 -24 278 -12 0 4 -35 18 -77 31 -102 29 -224 78 -243
97 -20 20 -7 18 105 -17z m1465 5 c25 -15 41 -16 161 -5 274 25 286 25 314 7
23 -15 35 -55 18 -57 -5 -1 -66 -2 -138 -3 -71 0 -135 -4 -142 -9 -6 -4 -15
-2 -19 4 -13 22 -155 -6 -175 -34 -10 -15 -79 53 -79 77 0 40 16 45 60 20z
m1431 -47 c10 -18 6 -17 -20 7 -36 34 -39 41 -11 26 11 -6 25 -20 31 -33z
m-4607 26 c3 -4 36 -18 73 -32 95 -37 93 -51 -4 -51 -97 0 -185 15 -235 41
-21 11 -38 21 -38 23 0 2 20 1 44 -1 55 -7 138 5 131 18 -7 10 18 13 29 2z
m-266 -76 c16 -28 37 -66 48 -84 10 -17 16 -34 13 -37 -11 -12 -134 35 -165
62 -35 31 -61 72 -44 72 5 0 10 -4 10 -9 0 -5 10 -13 23 -17 12 -4 32 -15 45
-25 36 -28 53 -15 46 35 -4 22 -12 47 -18 55 -8 11 -8 13 1 8 6 -4 25 -31 41
-60z m3362 5 c0 -15 5 -33 12 -40 9 -9 4 -12 -24 -12 -20 0 -44 -3 -52 -6 -20
-8 -13 16 16 59 25 36 48 35 48 -1z m-1912 -39 l27 -22 -50 5 c-74 8 -82 12
-59 28 26 19 49 16 82 -11z m5317 -153 c101 -348 110 -425 88 -715 -9 -108
-13 -401 -13 -908 l0 -748 -25 -112 c-23 -99 -45 -181 -62 -227 -3 -8 -7 -26
-9 -40 -2 -14 -8 -38 -12 -55 -18 -62 -22 209 -23 1485 -1 1562 -1 1466 11
1454 5 -5 25 -65 45 -134z m-7018 108 c-3 -8 -6 -5 -6 6 -1 11 2 17 5 13 3 -3
4 -12 1 -19z m-1718 -1470 l-2 -1483 -54 190 c-65 229 -80 319 -72 451 9 168
0 1470 -12 1619 -10 128 -9 150 10 260 12 66 31 154 41 195 22 83 80 250 87
250 2 0 3 -667 2 -1482z m6475 1391 c-3 -6 0 -15 7 -20 11 -7 11 -9 1 -9 -10
0 -10 -5 -2 -20 6 -11 8 -25 5 -30 -3 -6 6 -15 22 -22 l28 -12 -28 -4 c-31 -4
-27 -22 6 -23 34 -1 -83 -28 -125 -29 -32 0 -38 3 -38 20 0 26 41 108 70 138
21 22 67 32 54 11z m-3890 -46 c-3 -61 -51 -102 -82 -71 -21 21 -13 45 26 77
44 36 57 35 56 -6z m591 -32 l30 -16 -45 -3 c-39 -3 -147 19 -174 36 -19 11
30 19 62 10 40 -11 50 -5 31 19 -10 13 -4 11 26 -6 22 -14 54 -31 70 -40z
m3784 -76 c45 -121 62 -208 68 -352 11 -277 -30 -464 -159 -717 -48 -96 -142
-248 -163 -266 -13 -11 -15 -9 -15 11 0 13 12 65 26 114 14 50 28 132 31 183
l6 94 -148 -151 c-81 -83 -154 -160 -162 -170 -20 -30 1 -34 31 -6 15 14 28
20 32 14 14 -24 -340 -334 -461 -404 -27 -16 -84 -52 -125 -81 -103 -71 -467
-246 -624 -300 -138 -47 -254 -73 -464 -104 -155 -23 -142 -22 -142 -11 0 5
15 15 33 22 17 7 106 56 197 108 91 52 184 105 207 118 55 32 125 56 285 98
73 20 147 41 163 48 58 22 162 86 330 203 94 64 202 139 242 165 174 117 422
344 540 495 59 75 120 189 147 274 35 108 46 119 47 49 1 -43 2 -49 9 -27 4
14 8 110 9 212 1 102 3 191 6 198 3 7 1 54 -3 103 -7 75 -6 94 7 112 9 12 19
23 23 23 4 0 16 -25 27 -55z m-1239 0 c0 -8 -4 -15 -10 -15 -5 0 -7 7 -4 15 4
8 8 15 10 15 2 0 4 -7 4 -15z m2053 -72 c14 -38 49 -141 77 -231 29 -89 56
-165 62 -168 12 -7 36 13 60 51 l20 30 -7 -35 c-4 -19 -11 -807 -15 -1750 -3
-943 -8 -1717 -10 -1720 -1 -3 -6 13 -9 35 -4 23 -11 39 -18 38 -7 -2 -10 4
-7 12 4 8 9 13 13 11 4 -3 7 11 7 30 0 19 -5 33 -11 30 -5 -2 -9 -7 -8 -12 1
-5 -9 -9 -22 -9 -20 0 -21 3 -13 24 6 17 5 27 -4 34 -9 6 -8 7 5 3 9 -3 17 -1
17 4 0 6 -6 10 -12 11 -7 0 -4 4 7 9 11 5 14 9 7 9 -7 1 -11 5 -7 10 3 5 0 13
-6 17 -7 4 -9 3 -6 -3 4 -6 0 -16 -7 -22 -12 -10 -15 -7 -19 16 -2 15 -5 -92
-6 -239 -1 -260 3 -314 20 -287 4 8 10 11 13 9 2 -3 -6 -25 -18 -49 l-23 -44
-7 1779 c-8 2028 -13 2211 -70 2287 -13 18 -28 47 -35 66 -13 40 -15 121 -3
121 5 0 20 -30 35 -67z m-1349 0 c-4 -16 -11 -38 -15 -51 -16 -42 -12 -45 56
-40 36 3 65 4 65 3 0 -2 -21 -19 -47 -38 -62 -45 -273 -124 -273 -102 0 15 67
155 88 183 29 40 78 72 110 72 19 0 22 -4 16 -27z m-3735 -86 c-2 -1 -13 -9
-24 -17 -19 -14 -19 -14 -6 3 7 9 18 17 24 17 6 0 8 -1 6 -3z m3952 -70 c-5
-7 -13 -32 -17 -54 -7 -46 -18 -64 -86 -148 -27 -34 -44 -64 -41 -74 4 -13 3
-13 -7 1 -8 13 -7 26 5 54 27 64 150 263 153 248 2 -8 -1 -21 -7 -27z m-2552
3 c408 0 482 -2 472 -14 -6 -7 -36 -21 -67 -31 -79 -25 -173 -91 -211 -149
l-33 -48 -1 -357 c0 -196 -1 -599 0 -896 0 -559 -14 -901 -42 -979 -25 -72
-128 -176 -190 -191 -15 -4 -30 -12 -33 -17 -5 -7 22 -8 82 -3 49 4 305 9 569
10 535 3 555 5 686 70 108 55 185 138 251 271 39 81 58 110 74 112 39 6 44
-17 24 -109 -24 -107 -75 -410 -93 -552 -8 -59 -16 -110 -19 -113 -3 -3 -43 0
-89 5 -116 14 -2006 16 -2119 2 -105 -13 -120 -13 -120 -2 0 5 73 46 163 92
147 75 169 90 243 163 117 117 167 231 194 446 5 43 9 495 9 1050 1 924 0 977
-18 1015 -24 54 -104 126 -182 165 -35 18 -70 37 -76 42 -18 15 -4 31 21 24
11 -3 239 -6 505 -6z m-1064 -50 c3 -5 19 -10 36 -10 16 0 29 -4 29 -10 0 -12
-117 -13 -124 -1 -7 11 22 23 36 14 7 -3 8 -1 4 5 -4 7 -3 12 3 12 5 0 13 -4
16 -10z m2676 -21 c34 -36 39 -91 12 -121 -25 -27 -93 -24 -122 6 -35 37 -38
86 -7 119 35 38 79 37 117 -4z m-2781 11 c18 0 21 -3 11 -9 -8 -5 -27 -5 -44
0 -36 10 -52 24 -17 16 14 -4 36 -7 50 -7z m4585 -135 c-31 -85 -67 -164 -52
-115 23 78 83 237 85 227 1 -7 -13 -57 -33 -112z m-1245 66 c0 -5 -20 -29 -44
-54 -69 -69 -145 -91 -99 -29 43 58 143 116 143 83z m1506 -718 c-6 -567 -11
-1357 -16 -2436 0 -69 -4 -106 -10 -102 -5 3 -10 18 -11 33 -1 25 -2 25 -9 -6
-4 -18 -11 -36 -15 -40 -5 -4 -5 3 -2 15 3 13 1 26 -4 29 -5 3 -6 10 -3 16 4
6 3 8 -2 5 -6 -3 -9 -26 -8 -51 2 -37 -1 -44 -14 -39 -10 4 -13 2 -8 -5 4 -7
2 -12 -3 -12 -6 0 -12 -17 -12 -37 -1 -38 -1 -38 -9 -8 -4 17 -8 58 -9 92 -1
59 1 64 34 94 50 46 69 117 68 254 0 143 -26 297 -69 412 l-35 92 1 649 0 649
39 264 c22 145 44 314 50 374 9 86 31 407 31 448 0 4 5 7 11 7 8 0 10 -184 5
-697z m-1457 588 c-18 -23 -39 -41 -47 -41 -12 0 -12 -3 -1 -16 12 -15 7 -22
-35 -61 -27 -24 -71 -55 -97 -68 -46 -24 -259 -88 -267 -81 -9 10 22 48 80 98
110 94 145 118 235 158 49 21 101 45 118 54 45 24 52 4 14 -43z m-3538 0 c19
-6 48 -11 63 -11 29 0 86 -28 86 -43 0 -10 -90 1 -148 19 -44 13 -112 53 -112
66 0 4 17 2 38 -6 20 -7 53 -18 73 -25z m-232 -28 c4 1 27 -15 51 -35 49 -43
43 -47 -25 -18 -58 25 -102 55 -115 81 -10 17 -6 16 36 -6 25 -13 49 -23 53
-22z m5058 -182 c-6 -144 -8 -155 -68 -466 -36 -186 -88 -372 -97 -346 -2 6 1
24 6 40 9 27 8 30 -31 52 -23 13 -50 24 -59 25 -18 1 -19 -1 -69 -144 -17 -51
-33 -91 -35 -89 -2 2 12 52 32 113 41 130 87 318 113 463 17 93 28 122 89 241
39 76 78 167 88 207 27 105 38 70 31 -96z m-173 59 c-14 -39 -38 -93 -54 -119
-45 -78 -83 -132 -87 -127 -3 2 14 32 37 66 23 35 53 90 67 124 13 33 28 70
33 81 4 11 11 29 14 39 4 10 9 17 12 14 2 -3 -7 -38 -22 -78z m-7628 -590 c-1
-363 -4 -649 -7 -636 -45 168 -47 972 -2 1259 3 20 6 37 7 37 1 0 2 -297 2
-660z m9113 514 c43 -238 50 -553 21 -859 -11 -111 -31 -258 -35 -253 -6 6
-17 1233 -11 1227 3 -3 15 -55 25 -115z m-2441 83 c18 -14 15 -24 -18 -54 -19
-17 -30 -36 -30 -53 0 -18 -13 -40 -42 -68 -24 -23 -52 -53 -63 -67 -11 -13
-23 -25 -27 -25 -5 0 -8 33 -8 73 0 80 23 142 67 189 23 24 32 27 67 21 23 -3
47 -10 54 -16z m-251 -144 c-4 -3 -1 -16 7 -28 14 -21 13 -25 -8 -44 -20 -19
-38 -24 -113 -30 -17 -1 -17 -31 0 -31 7 0 23 -7 36 -16 l23 -17 -28 -22 c-28
-22 -28 -22 -6 -29 12 -4 22 -13 22 -20 0 -21 -71 -91 -106 -105 -17 -7 -37
-23 -44 -37 -24 -44 -33 -34 -59 66 l-18 71 64 57 c36 31 98 87 139 125 42 37
80 67 86 67 6 0 8 -3 5 -7z m-252 -61 c-48 -45 -78 -63 -137 -85 -93 -34 -176
-48 -215 -38 l-28 8 50 26 c28 15 76 46 107 69 50 36 69 43 155 58 54 10 105
18 113 18 8 1 -12 -24 -45 -56z m1265 -131 c-22 -33 -43 -61 -46 -61 -4 0 2
12 12 28 55 85 67 102 71 98 2 -2 -15 -31 -37 -65z m-1528 -55 c16 -12 16 -14
-5 -33 -80 -72 -165 -107 -287 -119 -30 -3 -67 -7 -82 -9 -54 -9 -27 16 65 61
75 36 263 110 287 113 3 0 13 -6 22 -13z m211 -27 c-3 -11 -24 -32 -46 -46
-21 -13 -42 -33 -44 -44 -6 -23 -103 -54 -103 -32 0 16 164 141 187 142 6 1 9
-7 6 -20z m1199 -101 c-7 -7 -12 -8 -12 -2 0 14 12 26 19 19 2 -3 -1 -11 -7
-17z m-6582 -60 c12 -40 46 -145 77 -233 l55 -160 -11 -80 c-11 -82 -19 -555
-23 -1275 -3 -597 -6 -657 -26 -665 -9 -3 -13 -3 -9 1 4 4 1 14 -6 23 -11 14
-10 14 6 2 22 -17 22 -9 -2 30 -10 17 -22 26 -25 21 -4 -6 -2 -14 4 -17 8 -5
8 -11 0 -20 -7 -8 -10 -30 -9 -49 2 -19 1 -37 -2 -40 -3 -3 -5 3 -6 12 -1 9
-4 29 -6 44 -4 18 0 28 10 33 12 4 13 9 5 17 -8 8 -9 15 -1 25 9 9 8 13 0 13
-7 0 -9 5 -5 11 4 7 16 -3 31 -27 14 -22 22 -30 18 -19 -4 11 -8 25 -8 32 0 7
-4 10 -9 7 -13 -8 -10 10 5 25 10 11 10 13 0 7 -16 -9 -17 10 -2 20 8 4 8 9 0
17 -7 7 -7 15 2 26 11 14 10 15 -7 1 -18 -14 -19 -13 -12 5 6 16 5 17 -5 8 -8
-8 -9 -16 -2 -25 5 -7 8 -19 7 -25 -1 -7 -2 -18 -3 -24 0 -5 -5 -8 -10 -4 -6
3 -8 14 -6 24 2 10 0 23 -4 29 -8 13 -9 -25 -12 -233 l-2 -120 -7 100 c-7 92
-12 443 -25 1998 -2 306 -3 557 0 557 2 0 14 -33 25 -72z m6727 -20 c-3 -29
-13 -81 -22 -114 -15 -53 -21 -62 -40 -60 -16 1 -22 7 -22 23 0 13 -6 30 -14
39 -11 13 -15 13 -24 2 -6 -7 -31 -31 -55 -53 l-43 -40 29 36 c66 81 187 219
192 219 3 0 2 -24 -1 -52z m-1564 -20 l49 -31 -74 -19 c-104 -27 -206 -74
-257 -118 -50 -44 -86 -56 -116 -36 -13 9 -33 16 -45 16 -11 0 -20 3 -20 8 0
13 122 90 195 123 68 31 206 88 214 89 2 0 26 -14 54 -32z m-577 2 c45 -6 112
-16 150 -23 l69 -13 -50 -18 c-27 -10 -78 -32 -111 -48 -69 -32 -78 -32 -244
4 -104 22 -230 66 -230 79 0 4 19 10 43 13 23 3 53 7 67 10 54 8 229 6 306 -4z
m679 -50 c13 -5 14 -9 5 -9 -8 0 -24 4 -35 9 -13 5 -14 9 -5 9 8 0 24 -4 35
-9z m1058 -117 c-25 -70 -282 -353 -320 -353 -8 0 -9 9 -2 35 12 43 70 145 82
145 5 0 7 -7 3 -15 -11 -29 12 -15 28 18 12 24 16 27 16 12 1 -19 1 -19 19 3
26 30 35 28 15 -3 -27 -42 2 -28 37 18 19 23 42 48 51 55 10 7 29 33 44 57 27
47 38 58 27 28z m337 -68 c-21 -54 -27 -50 -9 6 19 59 21 64 25 54 2 -5 -5
-32 -16 -60z m-167 23 c-78 -88 -142 -170 -148 -189 -4 -13 -18 -32 -31 -42
-13 -10 -23 -21 -23 -25 3 -21 -2 -33 -13 -29 -17 5 -48 -31 -48 -55 0 -16 -3
-16 -20 -6 -11 7 -20 17 -20 22 0 5 39 51 88 100 48 50 118 126 155 169 38 42
71 77 74 77 4 0 -3 -10 -14 -22z m-1787 -33 c33 -30 39 -49 16 -50 -18 -1 -82
-53 -92 -73 -7 -16 -17 -22 -33 -20 -29 4 -31 40 -5 74 11 14 18 27 15 30 -6
6 -168 -36 -180 -46 -5 -4 -1 -10 7 -13 9 -4 16 -2 16 3 0 6 8 10 17 10 15 0
14 -2 -3 -19 -13 -12 -21 -15 -26 -7 -5 8 -8 7 -8 -2 0 -10 -5 -10 -21 -1 -15
8 -19 8 -15 0 4 -6 1 -11 -7 -11 -8 0 -31 -11 -51 -25 -20 -14 -46 -25 -56
-25 -21 0 -40 28 -33 48 11 29 -32 1 -121 -80 -21 -19 -35 -22 -60 -12 -22 9
-20 47 4 69 22 20 28 44 7 27 -7 -6 -25 -9 -40 -6 -35 6 -91 -18 -122 -53 -21
-24 -26 -26 -35 -13 -5 8 -10 34 -10 56 0 42 0 42 43 47 23 4 87 9 142 12 55
4 143 17 195 30 52 13 162 35 244 50 83 14 152 28 155 30 9 10 19 4 57 -30z
m-4076 -81 c0 -13 -4 -24 -9 -24 -11 0 -19 30 -14 48 7 20 23 3 23 -24z m2536
-19 c3 -8 1 -30 -5 -48 -9 -27 -19 -36 -43 -41 -67 -13 -82 -8 -138 49 l-54
55 117 0 c94 0 119 -3 123 -15z m-2426 -2 c-8 -3 -22 -11 -30 -17 -13 -10 -13
-9 -1 7 7 9 21 17 30 16 13 0 14 -1 1 -6z m2086 -29 c32 -15 74 -57 74 -73 0
-11 -94 -8 -102 3 -5 7 -8 5 -9 -4 0 -10 -3 -8 -9 5 -8 19 -9 19 -9 1 -1 -15
-4 -16 -16 -6 -10 8 -15 9 -15 1 0 -7 -14 -9 -40 -6 -22 3 -40 1 -40 -3 0 -5
-25 -10 -56 -11 -31 -1 -60 -3 -64 -6 -8 -5 -93 85 -86 92 13 14 82 21 204 22
105 1 142 -3 168 -15z m-1966 -13 c0 -6 -4 -12 -8 -15 -5 -3 -9 1 -9 9 0 8 4
15 9 15 4 0 8 -4 8 -9z m5839 -40 c-6 -18 -13 -30 -15 -28 -2 2 1 18 7 36 6
18 13 30 15 28 2 -2 -1 -18 -7 -36z m324 -476 l-8 -440 -49 75 c-27 41 -62 92
-78 113 -21 26 -28 43 -22 55 4 9 8 82 9 162 l1 145 46 110 c25 61 59 150 74
199 25 77 29 85 32 55 1 -19 -1 -232 -5 -474z m-4640 482 c18 -8 38 -21 45
-29 11 -14 5 -17 -50 -23 -83 -9 -187 -34 -216 -53 -35 -23 -202 1 -202 29 0
22 251 87 343 88 26 1 62 -5 80 -12z m-1478 -27 c-3 -5 -12 -10 -18 -10 -7 0
-6 4 3 10 19 12 23 12 15 0z m85 -36 c0 -2 -9 -4 -21 -4 -11 0 -18 4 -14 10 5
8 35 3 35 -6z m4900 -2 c0 -5 -7 -17 -15 -28 -14 -18 -14 -17 -4 9 12 27 19
34 19 19z m743 -80 c-14 -34 -28 -60 -30 -58 -2 2 8 31 23 65 15 34 28 60 30
58 2 -2 -8 -31 -23 -65z m-6362 -78 l59 -118 -5 -85 c-3 -47 -8 -286 -10 -531
-5 -425 -19 -645 -38 -597 -4 11 -5 23 -2 27 3 5 1 12 -5 15 -8 5 -8 11 0 20
6 8 7 21 2 35 -7 20 -10 21 -15 7 -4 -10 -1 -17 5 -17 13 0 1 -14 -13 -16 -5
-1 -13 -2 -18 -3 -18 -2 -23 -40 -21 -183 0 -96 -3 -148 -10 -148 -7 0 -10
250 -11 783 -1 853 0 917 8 930 7 12 9 10 74 -119z m979 95 c0 -6 -4 -7 -10
-4 -5 3 -10 11 -10 16 0 6 5 7 10 4 6 -3 10 -11 10 -16z m708 -3 l24 -13 -29
-11 c-15 -6 -68 -21 -117 -32 -54 -13 -157 -51 -260 -96 -147 -65 -351 -132
-364 -120 -3 4 170 120 216 145 10 5 88 35 173 65 193 70 308 90 357 62z
m2017 -11 c28 -8 58 -20 68 -28 16 -11 4 -12 -75 -4 -91 9 -127 24 -113 47 7
12 34 9 120 -15z m-2864 -2 c13 -16 12 -17 -3 -4 -17 13 -22 21 -14 21 2 0 10
-8 17 -17z m4739 13 c0 -3 -4 -8 -10 -11 -5 -3 -10 -1 -10 4 0 6 5 11 10 11 6
0 10 -2 10 -4z m-4673 -21 c0 -8 -4 -12 -9 -9 -5 3 -6 10 -3 15 9 13 12 11 12
-6z m28 6 c3 -5 2 -12 -3 -15 -5 -3 -9 1 -9 9 0 17 3 19 12 6z m1857 -7 l107
-6 0 -94 c0 -52 -5 -96 -10 -99 -5 -4 -179 35 -386 85 -474 114 -453 109 -453
122 0 11 496 5 742 -8z m-1794 -29 c-1 -19 -3 -35 -3 -35 -1 0 -10 9 -21 21
-13 14 -14 20 -4 17 8 -2 15 3 16 10 2 19 4 22 9 22 3 0 5 -16 3 -35z m-38 21
c0 -2 -8 -10 -17 -17 -16 -13 -17 -12 -4 4 13 16 21 21 21 13z m4590 -6 c0
-20 -175 -193 -255 -253 -80 -60 -215 -132 -235 -125 -12 4 1 21 121 169 41
52 83 105 92 119 22 32 21 22 -3 -31 -25 -57 -25 -64 4 -67 35 -2 122 58 119
83 -1 11 0 14 3 8 10 -22 23 -15 84 47 61 61 70 68 70 50z m-4586 -59 c4 -5
-3 -7 -14 -4 -23 6 -26 13 -6 13 8 0 17 -4 20 -9z m-438 -36 c15 -20 25 -38
22 -40 -3 -3 -17 13 -32 35 -33 49 -27 52 10 5z m1260 13 c-16 -12 -40 -23
-54 -24 -14 -2 -29 -9 -33 -16 -5 -7 -14 -13 -21 -13 -7 -1 -12 -6 -10 -13 1
-7 -5 -15 -13 -18 -8 -3 -12 -10 -9 -15 3 -5 -3 -9 -14 -9 -28 0 -34 -11 -15
-32 9 -10 13 -21 10 -25 -14 -13 -120 -15 -158 -3 -87 29 -89 77 -4 109 81 30
275 80 315 80 l35 0 -29 -21z m264 3 c30 -10 75 -21 100 -25 25 -4 52 -11 60
-16 13 -9 13 -12 -2 -21 -10 -5 -20 -9 -23 -9 -3 1 -18 -6 -32 -15 -23 -16
-28 -16 -67 -1 -51 20 -92 54 -101 84 -8 26 -5 27 65 3z m1780 15 c0 -2 -7 -6
-15 -10 -8 -3 -15 -1 -15 4 0 6 7 10 15 10 8 0 15 -2 15 -4z m-1877 -68 c49
-62 52 -70 22 -54 -18 9 -35 11 -53 6 -15 -5 -47 -14 -72 -21 -25 -6 -51 -13
-58 -15 -17 -5 -33 -50 -25 -71 5 -17 5 -17 -12 -2 -11 11 -17 34 -18 67 -2
45 2 55 32 86 39 40 107 68 133 55 9 -5 32 -28 51 -51z m1827 39 c0 -2 -12
-14 -27 -28 l-28 -24 24 28 c23 25 31 32 31 24z m-1375 -90 c17 -9 14 -12 -25
-24 -25 -8 -61 -18 -80 -22 -24 -5 -35 -12 -34 -24 1 -9 -4 -17 -12 -17 -8 0
-19 -9 -26 -19 -9 -15 -15 -17 -30 -8 -23 15 -23 27 1 27 18 0 42 21 99 86 19
21 28 24 55 19 18 -4 41 -12 52 -18z m3625 -177 c108 -159 194 -365 226 -535
25 -140 30 -426 10 -557 -32 -200 -93 -384 -198 -596 -73 -148 -279 -472 -351
-552 -110 -123 -236 -244 -296 -284 -36 -24 -102 -74 -146 -111 -191 -159
-497 -327 -734 -404 -47 -16 -115 -43 -150 -61 -36 -18 -148 -66 -250 -107
-485 -196 -542 -212 -768 -220 -92 -3 -153 -2 -153 4 0 5 39 21 86 37 47 15
122 47 167 71 45 24 122 60 171 80 49 20 96 44 105 53 23 23 139 73 279 121
67 23 205 76 305 118 162 67 281 103 252 76 -21 -19 -91 -70 -154 -110 -75
-48 -71 -52 20 -22 96 32 128 51 215 130 84 77 186 148 354 248 215 130 306
205 423 351 61 76 217 246 217 236 0 -3 -25 -64 -55 -135 -60 -141 -70 -182
-28 -111 36 60 91 192 104 249 5 25 21 62 34 81 13 19 49 91 80 159 54 120
126 243 179 306 l26 30 -7 -50 c-3 -27 -17 -88 -31 -135 -35 -118 -38 -142
-19 -135 15 6 66 110 86 175 6 19 16 78 22 130 6 52 21 122 33 155 30 80 52
176 71 313 15 103 15 125 0 255 -35 315 -73 451 -185 660 -69 128 -93 186 -73
174 9 -6 72 -110 108 -179 10 -21 20 -36 22 -35 5 5 -70 171 -99 220 -15 26
-28 51 -28 55 1 12 91 -90 130 -148z m-4652 95 c28 -20 52 -40 52 -45 0 -16
-73 -61 -83 -51 -16 16 2 34 19 20 12 -10 13 -9 9 4 -9 22 -55 27 -90 9 -16
-8 -25 -17 -18 -19 7 -2 22 1 33 7 12 6 24 9 28 6 3 -3 0 -6 -6 -6 -7 0 -12
-5 -12 -11 0 -5 6 -7 13 -3 8 5 7 2 -2 -10 -8 -9 -20 -15 -27 -12 -13 5 -44
-24 -44 -42 0 -7 -6 -12 -14 -12 -8 0 -20 -16 -27 -35 -7 -19 -17 -35 -21 -35
-12 0 -48 77 -48 102 0 44 73 122 145 154 39 17 33 19 93 -21z m-724 -11 c3
-8 2 -12 -4 -9 -6 3 -10 10 -10 16 0 14 7 11 14 -7z m2051 -14 c-5 -16 -2 -20
14 -20 12 0 21 -4 21 -10 0 -5 -7 -10 -16 -10 -11 0 -14 -4 -8 -13 5 -7 1 -5
-8 5 -16 17 -17 17 -21 1 -3 -10 -5 -5 -6 13 0 16 4 35 11 42 17 17 20 15 13
-8z m-1665 -8 c0 -10 -47 -53 -80 -74 -26 -16 -164 -68 -181 -68 -19 0 -8 16
24 34 75 42 219 116 227 116 6 0 10 -4 10 -8z m1124 -7 c4 -10 -2 -19 -17 -24
-57 -22 -140 -90 -165 -136 -11 -19 -11 -19 -12 3 0 47 47 107 120 151 42 25
66 27 74 6z m-1910 -150 c10 -22 12 -42 6 -75 -5 -25 -9 -109 -10 -188 l0
-143 -54 -81 -55 -81 -6 37 c-10 50 -2 658 9 674 6 10 20 -5 52 -50 24 -35 50
-77 58 -93z m1450 124 c10 -17 16 -32 14 -34 -2 -3 -21 -6 -43 -9 -45 -6 -66
-25 -97 -86 -33 -63 -48 -63 -48 0 0 68 29 116 84 141 56 25 69 24 90 -12z
m4845 -16 c-4 -27 -8 -70 -8 -96 -1 -34 -5 -47 -13 -45 -20 7 -32 51 -24 89 5
30 40 99 49 99 2 0 0 -21 -4 -47z m-339 -14 c125 -80 231 -201 407 -461 85
-127 122 -202 158 -324 23 -82 51 -271 43 -295 -2 -7 -14 14 -26 47 -30 81
-98 196 -171 284 -49 60 -70 98 -106 191 -48 122 -81 182 -137 246 -46 51
-160 213 -162 230 -1 7 -14 25 -28 40 -35 38 -62 83 -51 83 6 0 38 -18 73 -41z
m-5100 -28 c-14 -28 -12 -50 9 -95 l19 -39 -26 -24 c-26 -24 -85 -32 -97 -13
-3 5 -19 7 -35 3 -44 -8 -39 17 12 62 41 38 41 38 50 15 8 -23 9 -23 24 -4 11
14 17 15 20 7 3 -7 10 -13 15 -13 5 0 4 10 -2 23 -27 51 -28 54 -6 76 27 26
31 27 17 2z m3750 -21 c-61 -50 -182 -117 -270 -148 -47 -17 -124 -49 -172
-71 -93 -43 -242 -95 -258 -89 -5 2 13 23 40 48 28 25 50 40 50 32 0 -8 7 -11
18 -8 9 2 58 14 107 26 96 24 199 76 266 137 31 28 36 30 32 13 -6 -21 -5 -21
30 -7 19 9 66 34 103 56 79 48 104 53 54 11z m-2338 -12 c-12 -12 -25 -18 -29
-14 -4 4 3 16 17 26 32 24 40 16 12 -12z m-1054 -103 c17 -36 15 -45 -9 -45
-29 0 -98 -71 -105 -109 -9 -44 -20 -38 -28 15 -7 55 8 90 61 133 46 38 66 39
81 6z m-1034 -123 c6 -10 -6 -29 -45 -68 -29 -29 -55 -51 -57 -49 -7 7 -3 164
4 198 l6 28 41 -47 c23 -26 46 -54 51 -62z m390 76 c-5 -7 -30 -40 -57 -72
-27 -32 -59 -82 -72 -110 -41 -90 -123 -186 -191 -226 -56 -31 -179 -132 -228
-185 -10 -11 -41 -54 -69 -95 -60 -90 -56 -85 -62 -78 -9 8 54 178 87 236 83
146 246 326 385 425 127 90 229 142 207 105z m439 -45 c5 -11 -18 -54 -26 -47
-10 10 -48 -7 -41 -18 4 -7 2 -8 -4 -4 -23 14 -150 -143 -135 -167 3 -6 1 -7
-5 -3 -19 12 -14 116 8 164 15 33 29 47 62 62 42 19 133 27 141 13z m-253 -26
c0 -1 -9 -27 -21 -57 -12 -30 -22 -77 -24 -103 -3 -52 -23 -82 -65 -100 -41
-17 -68 -19 -66 -5 3 22 17 39 30 36 16 -4 87 73 79 85 -3 5 -9 4 -13 -3 -4
-7 -13 -9 -20 -5 -9 6 -11 4 -5 -6 8 -12 6 -12 -8 0 -9 7 -17 10 -17 5 0 -5
-4 -3 -9 4 -6 11 -17 6 -45 -22 -20 -20 -36 -43 -36 -50 0 -9 -7 -12 -20 -9
-26 7 -25 -9 4 -71 20 -42 22 -54 12 -85 -6 -20 -16 -42 -23 -49 -11 -11 -13
-9 -13 11 0 41 -12 38 -37 -12 -23 -44 -59 -79 -70 -68 -7 8 42 182 72 254 41
101 129 238 146 227 5 -3 9 -1 9 4 0 7 45 25 95 37 9 2 45 -12 45 -18z m1210
-47 c-6 -11 -13 -20 -16 -20 -2 0 0 9 6 20 6 11 13 20 16 20 2 0 0 -9 -6 -20z
m3674 -115 c-27 -55 -65 -95 -88 -95 -6 0 -1 8 11 18 25 19 94 129 92 146 -1
6 0 22 1 36 3 18 4 15 7 -12 3 -26 -4 -54 -23 -93z m-1815 85 c-38 -22 -434
-140 -472 -140 -16 0 -17 3 -7 14 16 20 85 42 222 71 62 14 145 33 183 44 79
22 97 24 74 11z m1913 -57 c8 -10 6 -13 -6 -13 -12 0 -16 9 -15 33 1 21 3 25
6 12 3 -11 10 -26 15 -32z m-852 -95 c0 -11 -50 23 -71 48 -8 10 5 5 29 -11
23 -15 42 -32 42 -37z m5 -29 c24 -10 27 -13 11 -17 -19 -4 -97 46 -104 68 -3
7 11 1 29 -13 19 -14 48 -31 64 -38z m808 41 c-5 -20 -21 -36 -28 -28 -5 4 23
48 30 48 2 0 1 -9 -2 -20z m37 5 c0 -8 -2 -15 -4 -15 -2 0 -6 7 -10 15 -3 8
-1 15 4 15 6 0 10 -7 10 -15z m-3985 -66 c10 -28 24 -63 31 -78 18 -33 17 -41
-1 -41 -9 0 -22 24 -35 66 -31 101 -26 148 5 53z m3202 29 c-3 -8 -6 -5 -6 6
-1 11 2 17 5 13 3 -3 4 -12 1 -19z m810 -55 c-3 -10 -5 -4 -5 12 0 17 2 24 5
18 2 -7 2 -21 0 -30z m-5007 18 c0 -5 2 -16 5 -23 4 -9 -7 -21 -29 -33 -19
-10 -39 -28 -45 -39 -12 -22 -25 -44 -54 -89 -13 -19 -17 -37 -13 -60 l6 -32
-15 30 c-8 17 -14 55 -15 85 0 52 3 59 38 92 36 35 99 78 115 78 4 0 7 -4 7
-9z m-1653 -38 c19 -18 22 -24 10 -20 -10 4 -21 7 -23 7 -3 0 -2 5 2 11 4 7 1
10 -7 7 -8 -3 -13 -12 -11 -19 3 -11 1 -11 -9 -2 -10 10 -7 43 5 43 3 0 18
-12 33 -27z m5928 -38 l-7 30 26 -24 c14 -14 26 -19 26 -13 0 9 5 9 19 0 15
-9 23 -9 35 1 29 24 18 -7 -21 -64 -21 -30 -40 -54 -43 -55 -7 0 -81 142 -80
154 0 6 12 -6 26 -25 l26 -34 -7 30z m-3068 9 c-3 -3 -12 -4 -19 -1 -8 3 -5 6
6 6 11 1 17 -2 13 -5z m3800 -16 c-3 -8 -6 -5 -6 6 -1 11 2 17 5 13 3 -3 4
-12 1 -19z m-3927 -9 c0 -6 -4 -7 -10 -4 -5 3 -10 11 -10 16 0 6 5 7 10 4 6
-3 10 -11 10 -16z m3655 -16 c-6 -34 -55 -139 -55 -119 0 21 51 155 59 156 2
0 0 -17 -4 -37z m-4017 -62 c32 -34 45 -42 52 -32 4 7 13 12 21 9 8 -3 0 -13
-20 -27 -25 -18 -35 -20 -46 -11 -21 17 -72 101 -79 130 l-7 25 18 -25 c9 -14
37 -45 61 -69z m6489 67 c-3 -8 -6 -5 -6 6 -1 11 2 17 5 13 3 -3 4 -12 1 -19z
m-2197 -53 c0 -30 -23 -53 -52 -51 -19 1 -22 6 -20 31 2 17 8 35 14 40 7 7 9
3 5 -12 -7 -30 21 -40 32 -10 5 12 6 26 3 31 -3 5 0 6 6 2 7 -4 12 -18 12 -31z
m2094 -1 c3 -8 2 -12 -4 -9 -6 3 -10 10 -10 16 0 14 7 11 14 -7z m116 6 c0 -5
-2 -10 -4 -10 -3 0 -8 5 -11 10 -3 6 -1 10 4 10 6 0 11 -4 11 -10z m-7495 -20
c-3 -5 -11 -10 -16 -10 -6 0 -7 5 -4 10 3 6 11 10 16 10 6 0 7 -4 4 -10z
m4746 -134 c6 -28 16 -56 21 -63 11 -13 -12 -52 -52 -88 -18 -16 -23 -17 -30
-5 -6 8 -10 26 -10 39 0 13 -7 54 -16 91 l-17 68 33 42 33 42 13 -38 c7 -21
18 -60 25 -88z m-457 -136 c3 -124 6 -228 6 -233 0 -4 5 -6 12 -5 7 2 13 -7
14 -19 1 -13 2 -25 3 -28 0 -3 1 -8 2 -12 1 -5 5 -16 11 -26 14 -27 19 -59 7
-52 -5 4 -6 11 -3 17 5 7 2 8 -6 3 -9 -5 -11 -4 -6 3 4 7 3 20 -3 29 -8 15 -9
14 -7 -7 2 -14 7 -33 11 -43 4 -9 5 -26 2 -37 -4 -14 0 -20 11 -21 15 -1 15
-2 1 -6 -11 -3 -15 -12 -11 -29 3 -19 7 -22 13 -12 5 7 9 9 9 3 0 -5 -4 -17
-9 -24 -8 -12 -11 -9 -16 12 -4 15 -11 27 -16 27 -6 0 -5 -8 1 -19 6 -12 6
-22 1 -26 -5 -3 -8 -17 -5 -31 3 -15 1 -23 -5 -20 -5 4 -12 -19 -16 -51 -4
-32 -8 -62 -10 -68 -2 -5 -4 197 -4 449 -1 253 1 457 3 455 2 -2 6 -105 10
-229z m-4228 204 c2 -34 20 -84 41 -114 24 -34 23 -34 -10 4 -20 22 -39 36
-46 32 -6 -4 -11 -2 -11 4 0 13 -28 -1 -52 -27 -68 -72 -78 -86 -78 -111 -1
-26 -1 -26 -15 -8 -18 24 -20 106 -2 129 17 23 149 108 162 104 5 -2 10 -8 11
-13z m5162 -12 c16 -11 -15 -85 -55 -133 -27 -31 -27 -31 -35 -8 -5 13 -5 25
0 28 5 3 8 17 7 31 -2 29 14 70 27 70 5 0 6 5 3 10 -7 12 34 13 53 2z m-4268
-12 c0 -5 -2 -10 -4 -10 -3 0 -8 5 -11 10 -3 6 -1 10 4 10 6 0 11 -4 11 -10z
m4349 -62 c-4 -29 -10 -105 -14 -168 -3 -63 -8 -117 -11 -120 -7 -7 -30 25
-60 83 -20 39 -22 50 -12 61 15 14 63 120 82 179 12 38 23 14 15 -35z m-6669
-10 c0 -4 6 -8 14 -8 19 0 23 -17 16 -65 l-5 -40 -24 65 c-34 92 -35 98 -17
76 9 -11 16 -23 16 -28z m2203 -65 c-3 -7 -9 -13 -13 -13 -8 0 -80 103 -80
114 0 3 22 -16 49 -41 28 -26 47 -52 44 -60z m3657 97 c0 -5 -5 -10 -11 -10
-5 0 -7 5 -4 10 3 6 8 10 11 10 2 0 4 -4 4 -10z m-1 -102 c1 -35 12 -50 38
-54 7 -1 16 3 20 8 4 7 1 8 -7 3 -10 -6 -12 -4 -7 8 3 9 2 19 -4 22 -5 4 -9 3
-8 -2 1 -4 1 -15 0 -23 -1 -13 -3 -13 -10 -1 -6 9 -6 24 0 38 11 30 11 36 0
29 -5 -4 -7 3 -4 14 3 11 7 20 10 20 2 0 15 -24 28 -52 23 -51 36 -150 22
-165 -4 -3 -7 -1 -7 6 0 7 -3 10 -8 7 -4 -2 -16 2 -27 10 -13 10 -15 14 -4 14
12 0 12 2 -1 11 -13 9 -13 10 0 6 8 -2 15 -9 15 -14 0 -19 12 -25 18 -8 4 8 2
15 -4 15 -6 0 -7 5 -3 12 4 6 3 8 -4 4 -6 -3 -18 1 -26 10 -15 14 -16 11 -16
-33 0 -26 -4 -54 -9 -61 -8 -14 -22 132 -20 217 1 38 2 42 9 21 4 -14 8 -42 9
-62z m-4884 26 c-15 -50 -25 -67 -25 -41 0 8 -3 22 -6 31 -4 11 -1 16 10 16 9
0 16 8 16 20 0 11 4 20 10 20 5 0 3 -20 -5 -46z m119 -115 c-8 -57 -18 -178
-22 -269 l-8 -165 -40 -60 c-57 -83 -92 -154 -129 -265 -29 -85 -33 -92 -40
-67 -4 16 -5 90 -3 165 7 170 38 305 108 473 28 65 50 122 50 125 0 12 92 176
96 171 2 -2 -3 -51 -12 -108z m-478 56 c1 -8 -1 -17 -5 -19 -4 -3 -7 6 -7 19
0 25 8 25 12 0z m984 -36 c0 -10 -4 -19 -10 -19 -5 0 -10 -7 -10 -15 0 -8 -4
-15 -9 -15 -8 0 -24 -26 -68 -112 -8 -16 -19 -28 -24 -28 -20 0 -7 60 27 116
58 97 94 125 94 73z m770 -148 c0 -124 -7 -160 -12 -64 -2 28 -7 49 -12 45 -5
-3 -6 2 -3 12 4 10 1 19 -8 22 -10 4 -13 14 -9 33 3 14 2 21 -3 15 -5 -7 -14
-4 -25 8 -10 10 -14 18 -10 18 5 0 12 -3 16 -7 4 -5 13 -8 19 -8 7 0 12 -10
11 -23 0 -12 2 -19 5 -16 3 3 7 24 7 47 3 73 3 74 14 57 5 -8 10 -71 10 -139z
m-331 24 c10 -4 12 1 7 19 -5 19 -1 28 14 36 15 8 20 8 20 -2 1 -7 10 -2 20
11 25 30 25 22 -4 -67 l-23 -74 -60 74 c-72 88 -76 95 -68 108 4 6 23 -14 43
-44 20 -31 43 -58 51 -61z m4104 -2 c-3 -60 -10 -116 -14 -125 -13 -24 -76
-71 -87 -64 -9 5 9 124 28 182 9 27 66 114 75 114 2 0 1 -48 -2 -107z m1215
65 c15 -50 23 -106 13 -88 -16 27 -40 120 -31 120 5 0 13 -15 18 -32z m-957
-6 c-11 -16 -28 -35 -38 -43 -9 -8 -2 5 17 29 38 48 52 57 21 14z m128 -32
c10 -19 26 -48 36 -65 l19 -30 -33 31 c-38 37 -67 35 -101 -8 -12 -16 -30 -28
-40 -28 -10 0 -21 -7 -24 -16 -4 -9 -13 -14 -21 -10 -10 4 -20 -3 -27 -19 -6
-14 -15 -25 -20 -25 -4 0 -8 -5 -8 -11 0 -5 5 -7 12 -3 7 4 8 3 4 -4 -4 -6 -2
-21 4 -33 7 -11 9 -23 7 -26 -3 -3 -15 14 -27 37 -33 64 -23 86 66 144 45 29
87 66 102 89 16 24 28 34 30 26 3 -8 12 -30 21 -49z m-4052 -12 c-2 -13 -4 -5
-4 17 -1 22 1 32 4 23 2 -10 2 -28 0 -40z m3214 35 c13 -16 12 -17 -3 -4 -10
7 -18 15 -18 17 0 8 8 3 21 -13z m-2997 -9 c3 -8 10 -12 16 -9 17 10 51 14 45
5 -3 -5 3 -11 14 -15 18 -6 35 -38 32 -62 -1 -7 7 -13 18 -13 14 0 19 5 15 15
-5 12 2 15 29 15 56 0 86 -18 93 -57 4 -19 4 -36 1 -39 -3 -3 -35 4 -72 15
-42 13 -95 21 -141 21 l-74 0 0 70 c0 66 10 90 24 54z m3206 -9 c14 -19 14
-19 -2 -6 -10 7 -18 18 -18 24 0 6 1 8 3 6 1 -2 9 -13 17 -24z m-3332 -65 c-2
-21 0 -36 4 -34 5 3 8 -5 8 -19 0 -17 -15 -34 -60 -65 l-60 -41 0 90 c0 53 4
89 10 89 6 0 10 -26 10 -57 1 -45 3 -54 11 -40 5 9 7 22 3 29 -4 7 -3 8 4 4
14 -8 12 20 -2 43 -6 10 -5 12 2 7 7 -4 12 -2 12 4 0 7 5 6 14 -2 9 -9 10 -15
3 -20 -13 -8 -17 -48 -5 -48 4 0 8 5 8 11 0 5 6 7 13 3 7 -5 6 0 -3 11 -9 11
-10 16 -2 11 6 -4 12 -4 12 1 0 4 3 19 7 33 6 23 5 24 -11 11 -15 -13 -15 -11
1 17 20 36 27 24 21 -38z m3123 53 c8 -9 9 -14 2 -10 -6 4 -13 1 -16 -5 -3 -7
-4 -3 -4 10 1 26 1 26 18 5z m1578 -115 c45 -144 52 -182 52 -295 0 -92 -15
-192 -27 -180 -2 2 -13 35 -24 73 -10 38 -32 99 -48 135 -16 36 -33 80 -37 97
-8 40 2 75 20 68 9 -3 12 0 8 10 -8 22 8 207 17 197 4 -4 22 -52 39 -105z
m-4991 -10 c1 -62 -1 -108 -3 -103 -7 21 -12 215 -5 215 5 0 8 -51 8 -112z
m4062 107 c0 -2 -10 -9 -22 -15 -22 -11 -22 -10 -4 4 21 17 26 19 26 11z
m-5542 -36 c-1 -17 -6 -33 -10 -35 -4 -3 -8 -22 -8 -42 0 -20 -5 -44 -11 -52
-12 -18 -2 101 12 137 12 32 20 29 17 -8z m4737 -557 c-6 -15 -25 -7 -25 11 0
7 4 6 10 -3 5 -8 10 -10 10 -4 0 20 -27 37 -36 23 -5 -8 -3 -9 6 -4 9 5 11 4
6 -4 -11 -16 -28 -2 -22 18 4 9 -2 5 -13 -9 -11 -13 -17 -29 -14 -34 3 -5 2
-6 -4 -3 -6 4 -13 89 -17 204 -4 109 -9 235 -13 281 l-6 82 46 0 c26 0 52 6
59 14 11 11 13 -38 16 -273 1 -157 0 -292 -3 -299z m-3203 569 c-11 -6 -10
-11 3 -25 12 -12 13 -16 3 -16 -10 0 -9 -3 2 -10 12 -8 10 -9 -7 -7 -12 2 -26
7 -30 12 -5 4 -3 5 4 1 6 -3 14 -2 18 4 3 5 1 10 -6 10 -7 0 -9 3 -6 7 4 3 3
11 -3 17 -6 8 -2 12 13 13 15 2 18 0 9 -6z m991 -36 c-1 -22 -2 -107 -2 -189
-1 -121 -3 -146 -14 -138 -7 6 -12 24 -11 40 1 19 -3 29 -12 29 -10 0 -11 -4
-3 -14 6 -7 10 -13 8 -14 -33 -7 -50 -3 -55 14 -12 37 -22 -3 -16 -57 4 -28 7
-88 7 -133 0 -45 3 -75 6 -66 5 14 7 14 20 -4 8 -11 21 -22 29 -26 12 -4 12
-6 -2 -6 -9 -1 -22 7 -28 17 -9 14 -10 13 -4 -7 3 -14 2 -21 -3 -18 -5 4 -10
-1 -10 -9 0 -10 4 -11 11 -4 5 5 19 10 31 9 19 0 19 -1 -2 -9 -13 -5 -23 -11
-23 -14 0 -2 10 -2 23 2 19 5 20 3 10 -10 -10 -12 -10 -15 2 -15 10 0 15 11
15 34 0 18 3 33 8 33 11 0 9 -324 -3 -332 -6 -5 -5 -8 4 -8 8 0 4 -8 -10 -19
-14 -11 -26 -15 -30 -9 -4 5 -9 3 -12 -6 -4 -9 -3 -15 1 -13 9 3 12 -7 11 -30
0 -16 -1 -15 -8 2 -6 15 -9 10 -15 -23 -11 -69 -23 -39 -25 60 -1 51 -6 226
-11 388 -6 199 -6 317 1 363 6 37 9 101 7 142 l-3 74 40 4 c69 6 70 6 68 -38z
m1347 40 c8 -5 -1 -85 -10 -85 -4 0 -6 14 -5 30 2 21 -1 28 -9 22 -6 -5 -28
-8 -49 -7 -46 2 -52 -6 -36 -44 12 -26 14 -28 26 -13 11 15 12 15 8 1 -3 -9 1
-22 10 -29 8 -7 15 -9 15 -5 0 4 8 1 18 -6 15 -13 16 -12 3 3 -7 10 -18 15
-24 11 -6 -4 -7 -1 -2 7 6 9 4 11 -5 5 -9 -5 -11 -4 -6 4 6 9 11 9 21 1 8 -7
19 -9 24 -6 10 6 22 -31 35 -101 4 -27 3 -31 -12 -27 -50 16 -69 27 -84 48
-23 31 -69 154 -60 159 4 2 2 2 -5 1 -7 -2 -22 6 -35 16 -23 19 -23 19 77 19
55 0 102 -2 105 -4z m235 -152 l-5 -158 -26 3 c-14 2 -41 10 -60 18 l-34 14 0
134 c0 98 3 136 13 139 6 3 35 6 64 6 l52 1 -4 -157z m-4058 125 c-3 -8 -6 -5
-6 6 -1 11 2 17 5 13 3 -3 4 -12 1 -19z m2266 -45 c4 -38 7 -92 7 -120 l0 -53
-47 48 c-27 26 -58 55 -71 63 l-23 14 19 46 c14 33 29 50 49 57 56 21 60 17
66 -55z m2012 -65 c-7 -142 -20 -212 -36 -202 -7 4 -6 10 0 18 8 9 7 13 -4 13
-7 0 -14 -3 -13 -6 0 -3 -1 -9 -2 -13 -6 -20 -8 -33 -9 -100 l-2 -73 -29 79
c-29 76 -30 87 -30 241 0 89 2 164 5 167 3 2 32 6 66 7 l60 2 -6 -133z m212
-149 c-6 -247 -8 -284 -23 -301 -10 -10 -23 -17 -29 -14 -6 2 -12 -9 -13 -27
-3 -41 -12 -48 -13 -11 0 25 -2 26 -9 9 -5 -11 -10 -36 -11 -55 -4 -62 -17
219 -18 400 0 96 2 199 5 228 l7 52 55 0 54 0 -5 -281z m-757 226 c-5 -7 -6
-16 -2 -20 4 -5 1 -5 -5 -1 -18 10 -16 33 2 33 10 0 12 -4 5 -12z m64 6 c-8
-8 -34 -10 -38 -2 -3 4 6 7 19 7 14 0 22 -2 19 -5z m-4004 -32 c0 -5 -4 -9
-10 -9 -5 0 -10 7 -10 16 0 8 5 12 10 9 6 -3 10 -10 10 -16z m752 -12 c-6 -7
-12 -26 -15 -44 -3 -17 -8 -36 -11 -42 -10 -15 -66 -41 -66 -29 0 19 93 153
98 140 2 -7 -1 -18 -6 -25z m2943 23 c3 -5 2 -10 -4 -10 -5 0 -13 5 -16 10 -3
6 -2 10 4 10 5 0 13 -4 16 -10z m-3668 -52 c-3 -8 -6 -5 -6 6 -1 11 2 17 5 13
3 -3 4 -12 1 -19z m-100 -20 c-3 -7 -5 -2 -5 12 0 14 2 19 5 13 2 -7 2 -19 0
-25z m1467 -26 c-5 -7 -52 30 -58 45 -4 8 9 2 27 -13 19 -16 33 -30 31 -32z
m2388 8 c50 -52 60 -82 32 -98 -29 -16 -102 29 -145 90 l-20 27 28 15 c43 23
53 20 105 -34z m-2390 -90 c-2 -27 -7 -50 -11 -50 -4 0 -31 24 -60 54 -38 39
-52 60 -49 76 l3 23 30 -25 c17 -14 41 -31 55 -38 20 -10 17 -4 -15 30 l-40
43 45 -31 c44 -31 45 -32 42 -82z m857 40 c65 -33 128 -96 148 -148 11 -29 18
-72 17 -112 -1 -163 -128 -292 -285 -292 -81 0 -177 46 -221 105 -62 85 -81
136 -75 198 9 100 57 183 137 232 81 50 200 58 279 17z m3314 3 c-4 -10 -12
-27 -20 -39 -7 -11 -22 -46 -33 -78 -11 -33 -25 -65 -31 -72 -6 -7 -7 -19 -3
-25 4 -8 3 -9 -4 -5 -20 12 -13 54 19 119 43 85 91 152 72 100z m-5756 -65
c-2 -18 -6 -32 -10 -30 -4 1 -6 4 -4 5 1 2 -5 12 -13 23 -14 18 -14 18 4 4 18
-14 19 -13 14 2 -6 14 -1 28 9 28 2 0 2 -15 0 -32z m2985 -204 l-9 -119 0 180
c0 149 1 169 9 119 6 -38 6 -106 0 -180z m2648 226 c0 -41 -82 -140 -116 -140
-33 0 -1 64 58 114 43 37 58 44 58 26z m-4443 -28 c-10 -10 -17 -29 -18 -43
-1 -36 -24 -95 -32 -82 -14 22 38 143 61 143 3 0 -2 -8 -11 -18z m2753 8 c9
-6 17 -5 22 3 5 9 8 8 8 -3 -1 -8 -7 -24 -15 -34 -8 -11 -15 -16 -15 -11 0 4
-8 -2 -19 -13 -23 -27 -28 -27 -41 -3 -23 44 19 87 60 61z m-312 -24 c33 -17
57 -44 66 -73 9 -29 -13 -33 -88 -16 l-59 13 -33 -37 c-19 -21 -42 -50 -51
-65 -17 -27 -32 -36 -34 -20 -12 84 -2 122 32 122 11 0 17 4 14 10 -3 6 1 7 9
4 9 -3 13 -11 9 -18 -4 -6 1 -5 10 3 9 7 14 17 11 22 -3 5 1 6 9 3 10 -4 19 6
27 30 13 40 33 45 78 22z m442 -15 c5 -11 10 -25 10 -31 0 -21 -49 -60 -77
-60 -27 -1 -27 -1 -9 -15 21 -16 24 -63 6 -110 -10 -26 -12 -27 -29 -11 -9 9
-22 16 -28 16 -23 0 -32 -67 -11 -88 19 -19 3 -24 -42 -12 -33 9 -40 15 -35
28 15 36 25 89 25 139 0 42 4 54 20 63 11 6 20 17 20 25 0 15 94 72 122 74 10
0 22 -8 28 -18z m-4078 -16 c2 3 5 -2 5 -10 0 -10 -4 -12 -12 -5 -7 5 -14 8
-17 5 -2 -3 -5 2 -5 10 0 10 4 12 12 5 7 -5 14 -8 17 -5z m3033 6 c3 -5 2 -12
-3 -15 -5 -3 -9 1 -9 9 0 17 3 19 12 6z m22 -24 c0 -8 -6 -14 -14 -14 -9 0
-10 4 -2 14 6 7 12 13 14 13 1 0 2 -6 2 -13z m2199 -13 c1 -9 0 -13 -4 -10 -3
4 -7 14 -8 22 -1 9 0 13 4 10 3 -4 7 -14 8 -22z m-4474 -12 c-7 -2 -12 -11
-13 -20 0 -10 -3 -12 -5 -5 -3 7 0 22 7 35 9 17 14 19 17 8 3 -7 0 -16 -6 -18z
m3515 -16 c54 -24 110 -46 124 -48 23 -3 24 -6 22 -73 -4 -107 -20 -168 -58
-218 -31 -41 -88 -77 -101 -64 -10 10 36 76 73 104 44 33 60 66 68 134 6 50 5
53 -10 34 -8 -11 -20 -35 -25 -55 -5 -20 -16 -44 -25 -55 -14 -19 -15 -19 -6
6 5 15 7 36 4 48 -3 12 0 28 7 36 10 12 10 18 -1 32 -8 9 -9 14 -3 10 7 -4 14
2 17 13 3 13 0 20 -10 20 -8 0 -11 -4 -8 -10 3 -5 2 -10 -4 -10 -5 0 -12 6
-14 13 -4 7 -6 6 -6 -5 -1 -10 -8 -15 -18 -13 -10 2 -22 4 -27 4 -4 1 -6 10
-3 20 5 19 -7 22 -30 8 -7 -4 -18 2 -28 15 -8 13 -19 22 -23 22 -4 -1 -14 1
-22 5 -19 8 -23 71 -5 71 7 0 57 -20 112 -44z m-1247 7 c0 -5 -5 -15 -10 -23
-7 -12 -9 -10 -7 8 1 19 17 33 17 15z m38 -24 c-3 -8 -7 -3 -11 10 -4 17 -3
21 5 13 5 -5 8 -16 6 -23z m4203 -2 c-10 -9 -11 -8 -5 6 3 10 9 15 12 12 3 -3
0 -11 -7 -18z m-4414 -9 c-3 -8 -6 -5 -6 6 -1 11 2 17 5 13 3 -3 4 -12 1 -19z
m2909 0 c4 4 3 0 -4 -9 -10 -14 -10 -18 1 -22 22 -8 19 -57 -4 -57 -10 0 -21
5 -25 12 -5 7 -2 8 7 3 8 -5 11 -5 7 0 -4 4 -3 14 3 21 14 17 -9 30 -24 14 -9
-10 -8 -12 6 -7 11 4 16 3 12 -4 -4 -6 -13 -8 -21 -5 -8 3 -14 1 -14 -5 0 -6
-5 -7 -11 -4 -6 5 -3 13 10 22 12 8 19 19 16 24 -4 5 2 6 12 2 16 -6 17 -5 3
13 -14 17 -13 18 1 7 9 -7 20 -9 25 -5z m28 -58 c-5 -5 -10 3 -11 18 -1 22 0
24 9 8 6 -10 6 -22 2 -26z m-4237 -35 c48 -31 83 -84 109 -167 19 -62 15 -80
-13 -56 -10 8 -33 21 -52 28 -36 15 -91 89 -91 124 0 12 -9 35 -20 51 -11 17
-20 43 -20 59 l0 29 23 -20 c12 -11 41 -33 64 -48z m3953 31 c0 -50 -131 -186
-180 -186 -5 0 -10 10 -10 22 0 16 28 49 88 105 48 46 90 83 95 83 4 0 7 -11
7 -24z m-3633 -48 c-2 -13 -4 -3 -4 22 0 25 2 35 4 23 2 -13 2 -33 0 -45z
m3761 41 c13 -21 8 -59 -11 -70 -6 -4 -6 -13 1 -25 10 -19 0 -52 -21 -65 -13
-9 -44 0 -57 16 -14 16 10 92 41 137 24 33 30 34 47 7z m1831 -41 c-16 -29
-24 -38 -27 -26 -2 9 6 26 17 37 12 12 21 26 21 33 0 6 3 9 6 6 3 -3 -5 -26
-17 -50z m-3758 22 c23 -13 24 -37 2 -62 -23 -26 -31 -23 -42 19 -15 52 -2 65
40 43z m412 -41 c21 -35 23 -46 15 -70 -10 -28 -34 -49 -57 -49 -6 0 -11 15
-11 34 0 53 12 126 21 126 4 0 19 -19 32 -41z m-3121 9 c-7 -7 -12 -8 -12 -2
0 6 3 14 7 17 3 4 9 5 12 2 2 -3 -1 -11 -7 -17z m4509 -45 c-12 -23 -20 -31
-21 -20 0 19 30 71 37 63 2 -2 -5 -21 -16 -43z m-3625 -8 c1 -8 -1 -17 -5 -19
-4 -3 -7 6 -7 19 0 25 8 25 12 0z m-486 -39 c0 -6 -5 -3 -11 7 -12 21 -39 23
-39 2 0 -8 -5 -15 -10 -15 -6 0 -10 -15 -9 -32 1 -18 1 -40 0 -48 -1 -13 -2
-13 -12 0 -9 12 -10 11 -6 -8 3 -12 1 -19 -4 -16 -6 3 -17 0 -26 -8 -15 -12
-15 -9 -9 26 11 56 35 101 64 119 25 14 28 14 44 0 10 -9 18 -21 18 -27z
m2160 -36 c6 -21 26 -55 44 -75 49 -52 92 -49 158 10 54 48 71 56 66 28 -2
-10 -9 -18 -16 -18 -14 0 -32 -23 -32 -43 0 -7 12 -24 26 -37 l27 -25 -39 -16
c-82 -34 -196 5 -232 80 -14 29 -29 136 -19 136 4 0 11 -18 17 -40z m-1674 4
c-3 -7 -1 -16 5 -19 5 -4 7 -11 3 -16 -3 -6 -11 -4 -18 6 -10 14 -13 14 -31 1
-19 -14 -19 -15 15 -22 23 -5 29 -9 18 -13 -14 -5 -15 -9 -3 -24 8 -12 15 -14
20 -8 3 6 1 11 -6 11 -7 0 -5 8 7 21 15 16 16 24 6 39 -6 11 -8 21 -3 24 5 3
13 -12 19 -34 6 -25 6 -38 0 -34 -5 3 -4 -3 4 -15 10 -16 10 -23 0 -33 -6 -6
-12 -22 -12 -34 0 -74 -79 18 -93 108 -6 43 -1 51 24 37 13 -7 19 -6 19 1 0 6
5 8 12 4 8 -5 9 -2 5 10 -4 11 -3 15 4 11 6 -4 8 -13 5 -21z m-1222 -182 c-7
-177 3 -263 47 -389 20 -59 58 -127 66 -119 3 3 -1 29 -8 58 -12 52 -15 145
-5 156 4 3 6 -4 6 -15 0 -11 7 -40 15 -63 9 -24 24 -95 35 -157 16 -90 31
-136 69 -216 100 -213 94 -245 -16 -81 -190 283 -275 533 -260 768 6 105 34
239 48 230 5 -3 7 -73 3 -172z m6252 126 c-3 -13 -6 -28 -6 -35 0 -7 -6 -10
-14 -7 -11 4 -12 12 -4 35 12 34 33 40 24 7z m-1586 -2 c0 -7 -26 -41 -57 -74
-44 -46 -82 -73 -154 -111 l-97 -49 30 44 c16 24 64 71 106 106 106 86 172
118 172 84z m-2670 -78 c0 -89 -8 -104 -11 -20 -2 50 -3 51 -20 36 -10 -9 -16
-22 -12 -28 3 -6 3 -8 -2 -4 -4 4 -16 3 -26 -3 -15 -8 -19 -23 -21 -72 l-2
-62 -3 58 c-4 56 -3 59 41 110 26 28 46 55 46 59 0 5 2 8 5 8 3 0 5 -37 5 -82z
m770 -28 c0 -10 -4 -8 -14 6 -13 18 -20 60 -16 94 1 16 29 -75 30 -100z m2110
95 c17 -9 30 -18 30 -21 0 -3 -5 -2 -10 1 -13 8 -70 -27 -90 -54 -8 -12 -22
-21 -32 -21 -10 0 -25 -11 -34 -25 -9 -14 -20 -22 -25 -19 -5 3 -13 -6 -19
-20 -5 -14 -14 -26 -19 -26 -5 0 -11 -10 -13 -22 -3 -22 -3 -22 -21 5 -32 49
-31 78 4 131 18 26 46 57 63 67 38 23 125 25 166 4z m-3896 -30 c36 -17 100
-88 160 -175 21 -30 56 -73 77 -95 22 -23 39 -44 39 -48 0 -17 -23 -4 -69 41
-27 26 -74 68 -104 94 -51 44 -147 167 -147 188 0 13 7 13 44 -5z m461 -132
c-3 -12 -8 -50 -12 -84 l-6 -61 -43 43 -43 44 -1 88 0 88 55 -48 c45 -38 55
-52 50 -70z m1314 31 c-5 -7 -9 -25 -9 -40 1 -16 -3 -47 -8 -69 -9 -35 -10
-28 -11 51 0 50 2 94 6 97 11 11 32 -27 22 -39z m-3076 -69 c10 -32 13 -53 7
-59 -18 -18 -30 9 -35 80 -6 72 -1 69 28 -21z m889 55 c29 -30 33 -51 6 -34
-7 5 -25 9 -40 10 -23 2 -29 -3 -40 -32 -12 -35 -28 -46 -28 -20 0 37 41 106
62 106 5 0 23 -14 40 -30z m1178 -30 c-8 -5 -22 -10 -30 -10 -13 0 -13 1 0 10
8 5 22 10 30 10 13 0 13 -1 0 -10z m-623 -197 c73 -80 169 -162 312 -264 55
-40 219 -133 379 -215 79 -41 139 -74 133 -74 -43 0 -250 34 -311 51 -96 26
-218 84 -296 141 -67 48 -211 196 -261 268 -47 69 -101 181 -108 225 l-6 40
37 -40 c20 -22 75 -81 121 -132z m-263 133 c-3 -8 -12 -17 -20 -20 -9 -3 -12
-11 -8 -17 4 -8 3 -9 -4 -5 -7 4 -12 3 -12 -3 0 -6 -9 -15 -20 -21 -17 -9 -20
-8 -20 9 0 13 15 29 43 45 50 30 48 30 41 12z m1327 -10 c-6 -7 -15 -23 -21
-37 -10 -23 -10 -23 -8 6 3 35 16 57 30 49 5 -4 5 -11 -1 -18z m2382 0 c48
-20 71 -50 63 -83 -4 -15 -8 -37 -10 -47 -1 -11 -15 -24 -29 -29 -17 -5 -24
-13 -20 -20 4 -7 0 -7 -9 1 -14 11 -18 10 -26 -4 -10 -18 -23 -23 -77 -29 -16
-1 -34 -4 -40 -6 -5 -2 -24 0 -41 3 -32 7 -48 31 -59 91 -6 31 -3 37 32 66 40
33 123 70 161 70 12 1 37 -5 55 -13z m-3179 -184 c110 -79 348 -225 421 -258
49 -22 183 -74 347 -136 46 -17 23 -25 -46 -17 -101 12 -379 127 -529 218 -89
54 -298 218 -305 239 -8 27 35 9 112 -46z m2670 -5 c-34 -18 -74 -43 -89 -55
-16 -12 -51 -29 -79 -37 -67 -19 -281 -55 -329 -55 -76 0 -30 24 109 56 143
33 268 68 364 103 83 30 92 25 24 -12z m235 -26 c36 -46 54 -87 46 -111 -4
-14 -17 -17 -68 -16 -37 1 -71 -4 -84 -12 -13 -8 -23 -11 -23 -7 0 5 -8 1 -17
-7 -10 -8 -33 -20 -51 -28 -41 -16 -58 -4 -73 52 -10 38 -9 42 18 70 35 36
156 98 194 98 20 0 36 -10 58 -39z m-3594 -11 c-3 -5 -12 -10 -18 -10 -7 0 -6
4 3 10 19 12 23 12 15 0z m285 -27 c0 -16 -63 -17 -91 -3 -27 15 -24 26 9 25
15 -1 36 2 47 6 20 7 35 -5 35 -28z m105 -140 c19 -21 35 -41 35 -44 0 -5 -68
-4 -80 1 -3 1 -8 2 -12 1 -5 0 -8 2 -8 6 0 10 24 73 28 73 1 0 19 -17 37 -37z
m2901 -20 c21 -26 33 -44 26 -39 -16 10 -82 -12 -82 -28 0 -7 -35 -20 -82 -30
-45 -10 -88 -25 -96 -32 -7 -8 -9 -14 -3 -14 6 0 8 -6 5 -14 -7 -18 -86 -28
-124 -15 -37 13 -55 42 -41 67 25 46 80 79 206 123 118 42 144 40 191 -18z
m-726 -8 c129 -9 241 -18 248 -20 37 -13 -19 -35 -186 -75 -72 -17 -114 -21
-177 -18 -77 4 -93 9 -200 61 -74 36 -114 61 -109 68 4 8 35 9 98 5 50 -3 197
-13 326 -21z m-915 -50 c83 -21 216 -59 425 -124 l85 -26 -65 -7 c-101 -12
-337 1 -391 21 -52 20 -222 118 -259 150 l-25 22 70 -7 c39 -4 111 -17 160
-29z m1203 -144 c26 -21 54 -41 62 -44 9 -3 6 -6 -10 -7 -14 -1 -34 -3 -44 -5
-11 -2 -28 1 -38 6 -12 7 -34 3 -75 -14 -32 -13 -100 -30 -151 -37 -76 -11
-97 -19 -112 -37 l-17 -22 -20 22 c-11 12 -28 34 -37 48 -15 24 -15 27 -1 39
16 14 319 86 368 89 19 1 43 -11 75 -38z m1645 -53 c-21 -29 -61 -77 -91 -106
-56 -55 -179 -152 -193 -152 -12 0 -11 18 1 25 6 4 42 68 80 143 63 126 91
166 55 79 -8 -20 -15 -46 -15 -58 0 -21 1 -21 18 -6 10 10 23 17 29 17 6 0 18
10 27 23 14 19 15 20 9 2 -3 -11 -13 -26 -21 -32 -9 -7 -12 -16 -8 -20 4 -4
37 25 74 65 37 40 68 72 69 72 2 0 -14 -24 -34 -52z m-2129 -88 c31 -38 61
-70 67 -70 5 0 9 -4 9 -10 0 -15 -228 -6 -243 9 -9 9 -8 11 4 6 10 -4 20 0 25
7 4 7 4 10 -1 6 -4 -4 -14 -3 -21 3 -10 9 -15 7 -20 -5 -4 -9 -18 -16 -34 -16
-16 0 -41 -5 -57 -11 -25 -9 -30 -7 -49 17 -26 32 -36 80 -19 94 11 10 184 37
246 39 32 1 40 -5 93 -69z m-806 10 c2 -14 8 -30 13 -36 13 -16 -17 -39 -53
-40 -17 -1 -32 5 -35 12 -3 8 -9 11 -14 8 -9 -5 -13 9 -10 31 1 6 -5 2 -13 -8
-8 -11 -17 -14 -20 -8 -4 6 -16 7 -29 2 -12 -4 -28 -6 -34 -4 -7 3 -13 -1 -13
-7 0 -6 -6 -10 -12 -7 -7 2 -27 0 -44 -5 -18 -5 -42 -4 -55 1 -23 9 -23 9 -4
16 11 4 49 19 85 33 89 35 116 41 180 39 51 -2 55 -4 58 -27z m364 6 c8 -7 34
-44 58 -81 35 -54 41 -68 29 -76 -32 -20 -83 -14 -137 18 -23 14 -49 23 -56
20 -8 -3 -25 2 -38 12 -13 10 -29 16 -37 13 -7 -2 -17 2 -22 9 -4 7 -11 10
-15 6 -4 -3 6 -23 21 -42 15 -20 24 -39 21 -42 -3 -3 -1 -12 5 -20 9 -10 8
-13 -4 -13 -28 0 -97 74 -97 104 0 72 56 103 192 105 44 1 71 -4 80 -13z
m-2027 -190 c8 -1 22 -9 32 -17 28 -24 102 -69 112 -69 5 0 14 -7 21 -15 7 -8
16 -13 20 -10 4 3 13 -2 20 -10 6 -8 31 -23 55 -35 24 -11 46 -27 48 -35 12
-30 216 -149 371 -216 50 -22 100 -44 111 -48 38 -17 57 -21 67 -15 6 4 1 13
-13 21 -19 11 -20 13 -4 9 11 -3 59 -15 107 -27 48 -12 86 -25 83 -29 -3 -4 1
-7 8 -6 22 2 172 -36 182 -46 11 -11 -168 -3 -202 9 -12 4 -15 3 -8 -5 23 -24
231 -73 368 -87 37 -4 67 -10 67 -15 0 -23 -325 28 -425 68 -326 128 -477 198
-610 279 -243 150 -301 188 -377 246 -87 68 -160 139 -85 83 21 -15 44 -29 52
-30z m1739 0 c51 -60 58 -76 23 -53 -32 21 -136 31 -185 17 -23 -6 -54 -22
-69 -36 -25 -23 -28 -24 -34 -7 -13 31 -10 33 39 55 26 11 74 33 106 49 33 16
62 29 66 29 4 0 28 -24 54 -54z m-704 25 c15 -29 13 -32 -14 -25 -23 5 -95 -5
-141 -22 -19 -7 -19 -6 1 15 22 24 85 50 121 51 12 0 27 -9 33 -19z m1165 -66
l40 -34 -51 6 c-29 3 -76 0 -105 -7 -30 -6 -63 -14 -74 -16 -11 -3 16 15 60
39 44 25 82 45 85 46 3 0 23 -15 45 -34z m-785 -76 c0 -11 -4 -17 -10 -14 -5
3 -22 0 -37 -8 -67 -35 -135 -57 -117 -38 11 12 142 79 157 80 4 1 7 -8 7 -20z
m2389 -96 c-18 -32 -72 -98 -119 -146 l-85 -89 61 36 c34 20 72 48 84 61 13
14 29 25 35 25 6 0 31 20 55 45 24 25 51 44 60 42 8 -1 14 3 13 8 -1 6 7 22
18 35 11 15 17 18 13 8 -10 -28 4 -21 38 17 42 48 48 36 9 -17 -72 -98 -284
-269 -416 -335 -99 -50 -247 -105 -256 -96 -4 4 58 62 139 128 81 66 199 172
262 236 63 64 116 112 118 108 2 -5 -11 -35 -29 -66z m-1900 1 c-13 -15 -105
-64 -121 -64 -21 0 -4 19 30 34 21 10 52 28 68 41 30 24 46 16 23 -11z m-1394
-69 c11 -9 -2 -4 -30 11 -27 15 -54 32 -60 37 -16 15 68 -29 90 -48z m2492
-289 c-68 -52 -480 -131 -501 -97 -7 10 21 17 109 26 65 6 270 47 350 69 63
18 63 18 42 2z m-960 -132 c-3 -3 -12 -4 -19 -1 -8 3 -5 6 6 6 11 1 17 -2 13
-5z m-258 -13 c22 -14 -70 -25 -126 -15 l-48 8 40 7 c61 10 118 10 134 0z"/>
<path d="M9801 3564 c0 -11 3 -14 6 -6 3 7 2 16 -1 19 -3 4 -6 -2 -5 -13z"/>
<path d="M9700 3509 c0 -5 5 -7 10 -4 6 3 10 8 10 11 0 2 -4 4 -10 4 -5 0 -10
-5 -10 -11z"/>
<path d="M505 3321 c-3 -5 -2 -12 3 -15 5 -3 9 1 9 9 0 17 -3 19 -12 6z"/>
<path d="M1780 4412 c0 -5 6 -15 14 -21 11 -9 15 -8 20 6 4 10 4 14 0 10 -4
-4 -13 -2 -21 4 -8 7 -13 8 -13 1z"/>
<path d="M7180 8530 c-8 -26 -7 -41 2 -32 6 6 8 16 5 24 -3 7 -6 11 -7 8z"/>
<path d="M3900 8390 c0 -5 5 -10 11 -10 5 0 7 5 4 10 -3 6 -8 10 -11 10 -2 0
-4 -4 -4 -10z"/>
<path d="M3835 8340 c-3 -5 -1 -10 4 -10 6 0 11 5 11 10 0 6 -2 10 -4 10 -3 0
-8 -4 -11 -10z"/>
<path d="M3440 8135 c-11 -13 -10 -14 4 -9 9 3 16 10 16 15 0 13 -6 11 -20 -6z"/>
<path d="M3410 8095 c-7 -9 -8 -15 -2 -15 5 0 12 7 16 15 3 8 4 15 2 15 -2 0
-9 -7 -16 -15z"/>
<path d="M3314 7999 c-19 -22 -19 -22 4 -10 12 6 22 16 22 21 0 15 -5 12 -26
-11z"/>
<path d="M2413 6001 c-174 -8 -190 -35 -36 -61 63 -10 77 -17 112 -51 22 -22
74 -99 117 -172 100 -171 129 -211 243 -335 64 -70 122 -121 179 -159 148 -97
239 -130 427 -153 78 -10 94 -15 120 -40 47 -46 120 -73 172 -66 58 8 91 28
126 76 18 26 52 52 100 77 125 65 220 182 261 322 9 30 16 67 16 82 0 34 -28
68 -59 71 -22 3 -26 -2 -37 -55 -6 -32 -23 -74 -37 -93 -45 -64 -188 -157
-252 -165 -11 -1 -40 3 -65 10 -57 16 -116 8 -191 -25 -55 -25 -66 -26 -144
-20 -129 9 -181 23 -291 76 -115 56 -240 144 -303 216 -61 69 -166 230 -236
362 -48 89 -64 112 -80 110 -11 -1 -75 -4 -142 -7z m743 -734 c108 -54 180
-74 297 -83 48 -4 87 -11 87 -15 0 -11 -11 -12 -75 -10 -133 6 -334 81 -421
158 -29 26 -32 30 -9 15 17 -11 71 -40 121 -65z m849 -27 c-10 -17 -45 -32
-45 -20 0 6 10 15 23 20 29 12 29 12 22 0z m-217 -40 c12 -12 22 -32 22 -47 0
-24 -2 -25 -36 -20 -26 4 -48 0 -77 -15 -39 -19 -41 -20 -54 -2 -50 68 80 144
145 84z m162 12 c0 -11 -46 -32 -68 -32 -14 1 -13 4 7 20 23 20 61 27 61 12z"/>
<path d="M2116 5719 c-123 -29 -242 -124 -294 -236 -24 -52 -27 -69 -27 -173
0 -107 2 -119 28 -169 58 -110 156 -187 279 -221 75 -20 201 -9 271 23 111 51
213 175 247 300 31 115 -21 279 -116 366 -100 93 -263 139 -388 110z m173 -98
c280 -87 313 -445 53 -573 -58 -29 -77 -33 -142 -33 -63 1 -83 5 -127 29 -116
64 -166 145 -167 271 -1 68 3 89 27 140 34 73 56 97 123 135 88 51 145 59 233
31z"/>
<path d="M2135 5546 c-133 -62 -192 -179 -151 -302 37 -111 100 -163 211 -172
246 -19 364 299 161 434 -48 31 -130 64 -160 64 -6 0 -33 -11 -61 -24z m214
-60 c42 -38 81 -117 81 -166 -1 -138 -154 -258 -267 -208 -51 23 -129 91 -149
129 -17 33 -18 89 -3 143 14 51 107 146 143 146 26 0 26 0 26 -86 0 -80 -2
-89 -25 -110 -30 -28 -30 -30 -5 -72 29 -48 59 -58 105 -36 58 27 73 88 25
101 -11 3 -23 16 -26 30 -8 30 0 155 10 172 9 13 40 -3 85 -43z"/>
<path d="M2005 4930 c3 -5 8 -10 11 -10 2 0 4 5 4 10 0 6 -5 10 -11 10 -5 0
-7 -4 -4 -10z"/>
<path d="M2049 4903 c-11 -15 -11 -16 1 -6 10 9 18 9 34 1 19 -10 20 -10 7 5
-17 21 -25 21 -42 0z"/>
<path d="M2046 4867 c3 -10 9 -15 12 -12 3 3 0 11 -7 18 -10 9 -11 8 -5 -6z"/>
<path d="M1933 4812 c-1 -22 0 -24 6 -7 7 18 8 17 13 -7 3 -18 1 -25 -7 -22
-6 3 -12 -1 -12 -9 0 -15 41 -16 43 -1 0 5 4 17 8 26 9 20 -1 41 -15 32 -5 -3
-15 -1 -22 5 -10 7 -13 3 -14 -17z m44 -7 c0 -8 -4 -12 -9 -9 -5 3 -6 10 -3
15 9 13 12 11 12 -6z"/>
<path d="M2094 4796 c1 -8 5 -18 8 -22 4 -3 5 1 4 10 -1 8 -5 18 -8 22 -4 3
-5 -1 -4 -10z"/>
<path d="M2401 4664 c-1 -6 5 -17 12 -23 10 -8 14 -7 14 4 0 8 -4 12 -8 9 -4
-2 -10 2 -12 8 -4 8 -6 9 -6 2z"/>
<path d="M4455 7764 c-16 -20 -23 -35 -16 -33 12 4 57 69 48 69 -2 0 -17 -16
-32 -36z"/>
<path d="M4375 7431 c-3 -5 -2 -12 3 -15 5 -3 9 1 9 9 0 17 -3 19 -12 6z"/>
<path d="M3890 8030 c-8 -5 -10 -10 -5 -10 6 0 17 5 25 10 8 5 11 10 5 10 -5
0 -17 -5 -25 -10z"/>
<path d="M3696 7981 c-4 -5 3 -7 14 -4 23 6 26 13 6 13 -8 0 -17 -4 -20 -9z"/>
<path d="M3601 7969 c-18 -6 -31 -12 -29 -14 2 -3 24 1 49 9 49 16 33 20 -20
5z"/>
<path d="M3495 7930 c-3 -6 1 -7 9 -4 18 7 21 14 7 14 -6 0 -13 -4 -16 -10z"/>
<path d="M3435 7890 c-3 -5 -2 -10 4 -10 5 0 13 5 16 10 3 6 2 10 -4 10 -5 0
-13 -4 -16 -10z"/>
<path d="M3394 7859 c-19 -22 -19 -22 4 -8 12 8 22 17 22 21 0 12 -6 9 -26
-13z"/>
<path d="M5894 7768 l-19 -23 23 19 c21 18 27 26 19 26 -2 0 -12 -10 -23 -22z"/>
<path d="M1119 2888 c-5 -18 -6 -38 -1 -34 7 8 12 36 6 36 -2 0 -4 -1 -5 -2z"/>
<path d="M1126 2842 c-2 -4 -1 -14 4 -22 7 -11 9 -9 7 8 -1 24 -3 26 -11 14z"/>
<path d="M4462 7300 c13 -10 25 -16 28 -13 3 3 -1 8 -8 10 -6 3 -10 8 -8 12 3
4 -4 8 -15 8 -18 2 -18 0 3 -17z"/>
<path d="M8692 2830 c0 -14 2 -19 5 -12 2 6 2 18 0 25 -3 6 -5 1 -5 -13z"/>
<path d="M8680 2680 c-12 -29 -8 -60 8 -60 4 0 8 20 8 45 1 25 0 45 -1 45 -2
0 -8 -13 -15 -30z"/>
<path d="M8655 2610 c-3 -5 -1 -10 4 -10 6 0 11 5 11 10 0 6 -2 10 -4 10 -3 0
-8 -4 -11 -10z"/>
<path d="M8409 2778 c-1 -2 -2 -15 -3 -30 -2 -19 1 -25 11 -21 8 3 10 9 5 12
-5 3 -8 14 -6 24 2 14 -3 25 -7 15z"/>
<path d="M8190 5017 c0 -2 6 -10 14 -16 11 -9 16 -9 22 1 4 7 4 10 -1 6 -4 -4
-14 -3 -22 3 -7 6 -13 9 -13 6z"/>
<path d="M8165 5001 c-3 -5 -2 -12 3 -15 5 -3 9 1 9 9 0 17 -3 19 -12 6z"/>
<path d="M8175 4960 c6 -10 4 -12 -8 -7 -10 3 -17 3 -17 -1 0 -11 41 -34 48
-28 3 3 0 6 -7 6 -7 0 -11 7 -8 15 4 8 1 17 -5 21 -7 5 -8 2 -3 -6z"/>
<path d="M7400 4740 c0 -5 7 -10 16 -10 8 0 12 5 9 10 -3 6 -10 10 -16 10 -5
0 -9 -4 -9 -10z"/>
<path d="M5630 4760 c-34 -7 -34 -7 -5 -8 17 0 39 3 50 8 24 10 4 10 -45 0z"/>
<path d="M4330 4690 c-11 -7 -7 -10 18 -10 17 0 32 5 32 10 0 13 -30 13 -50 0z"/>
<path d="M6981 1722 c-41 -50 -54 -75 -26 -52 25 21 78 91 72 96 -2 3 -23 -17
-46 -44z"/>
<path d="M5355 950 c-35 -6 -32 -7 25 -8 36 0 76 4 90 8 33 10 -57 10 -115 0z"/>
<path d="M7925 3910 c10 -11 20 -20 23 -20 3 0 -3 9 -13 20 -10 11 -20 20 -23
20 -3 0 3 -9 13 -20z"/>
<path d="M6587 2893 c-10 -9 -9 -23 1 -23 5 0 9 7 9 15 0 17 -1 18 -10 8z"/>
<path d="M6580 2856 c0 -2 7 -7 16 -10 8 -3 12 -2 9 4 -6 10 -25 14 -25 6z"/>
<path d="M6224 2432 c3 -5 0 -13 -6 -15 -9 -4 -10 -6 -1 -6 17 -1 25 16 12 25
-7 4 -9 3 -5 -4z"/>
<path d="M3610 2684 c-75 -33 -150 -138 -150 -212 0 -95 96 -206 197 -227 40
-8 129 16 166 46 73 57 106 182 69 256 -32 63 -68 99 -124 127 -59 29 -107 32
-158 10z m123 -8 c35 -15 71 -51 111 -110 20 -29 26 -51 26 -91 0 -71 -42
-153 -90 -177 -48 -25 -131 -23 -181 2 -82 42 -135 163 -104 237 33 78 85 125
160 144 43 10 43 10 78 -5z"/>
<path d="M3656 2628 c-10 -32 -25 -208 -20 -222 14 -36 108 -43 136 -9 10 13
6 21 -26 47 -37 32 -38 34 -43 114 -5 72 -8 82 -25 82 -10 0 -20 -6 -22 -12z"/>
<path d="M4225 1210 c-4 -6 -1 -9 7 -8 8 2 12 -4 10 -14 -3 -22 4 -24 11 -4 7
18 -18 42 -28 26z"/>
<path d="M6565 840 c-3 -5 -1 -10 4 -10 6 0 11 5 11 10 0 6 -2 10 -4 10 -3 0
-8 -4 -11 -10z"/>
</g>
</svg>
